<svg width="20" height="20" viewBox="0 0 20 20" fill="none" xmlns="http://www.w3.org/2000/svg">
<path d="M17.5001 4.99984H14.1667V4.1665C14.1667 3.50346 13.9034 2.86758 13.4345 2.39874C12.9657 1.9299 12.3298 1.6665 11.6667 1.6665H8.33342C7.67037 1.6665 7.03449 1.9299 6.56565 2.39874C6.09681 2.86758 5.83342 3.50346 5.83342 4.1665V4.99984H2.50008C2.27907 4.99984 2.06711 5.08764 1.91083 5.24392C1.75455 5.4002 1.66675 5.61216 1.66675 5.83317V9.1665C1.66862 9.51599 1.74376 9.8612 1.88729 10.1798C2.03083 10.4985 2.23958 10.7835 2.50008 11.0165V15.8332C2.50008 16.4962 2.76347 17.1321 3.23231 17.6009C3.70116 18.0698 4.33704 18.3332 5.00008 18.3332H15.0001C15.6631 18.3332 16.299 18.0698 16.7678 17.6009C17.2367 17.1321 17.5001 16.4962 17.5001 15.8332V11.0165C17.7606 10.7835 17.9693 10.4985 18.1129 10.1798C18.2564 9.8612 18.3315 9.51599 18.3334 9.1665V5.83317C18.3334 5.61216 18.2456 5.4002 18.0893 5.24392C17.9331 5.08764 17.7211 4.99984 17.5001 4.99984ZM7.50008 4.1665C7.50008 3.94549 7.58788 3.73353 7.74416 3.57725C7.90044 3.42097 8.1124 3.33317 8.33342 3.33317H11.6667C11.8878 3.33317 12.0997 3.42097 12.256 3.57725C12.4123 3.73353 12.5001 3.94549 12.5001 4.1665V4.99984H7.50008V4.1665ZM15.8334 15.8332C15.8334 16.0542 15.7456 16.2661 15.5893 16.4224C15.4331 16.5787 15.2211 16.6665 15.0001 16.6665H5.00008C4.77907 16.6665 4.56711 16.5787 4.41083 16.4224C4.25455 16.2661 4.16675 16.0542 4.16675 15.8332V11.6665H5.83342V12.4998C5.83342 12.7209 5.92121 12.9328 6.07749 13.0891C6.23377 13.2454 6.44573 13.3332 6.66675 13.3332C6.88776 13.3332 7.09972 13.2454 7.256 13.0891C7.41228 12.9328 7.50008 12.7209 7.50008 12.4998V11.6665H12.5001V12.4998C12.5001 12.7209 12.5879 12.9328 12.7442 13.0891C12.9004 13.2454 13.1124 13.3332 13.3334 13.3332C13.5544 13.3332 13.7664 13.2454 13.9227 13.0891C14.079 12.9328 14.1667 12.7209 14.1667 12.4998V11.6665H15.8334V15.8332ZM16.6667 9.1665C16.6667 9.38752 16.579 9.59948 16.4227 9.75576C16.2664 9.91204 16.0544 9.99984 15.8334 9.99984H14.1667V9.1665C14.1667 8.94549 14.079 8.73353 13.9227 8.57725C13.7664 8.42097 13.5544 8.33317 13.3334 8.33317C13.1124 8.33317 12.9004 8.42097 12.7442 8.57725C12.5879 8.73353 12.5001 8.94549 12.5001 9.1665V9.99984H7.50008V9.1665C7.50008 8.94549 7.41228 8.73353 7.256 8.57725C7.09972 8.42097 6.88776 8.33317 6.66675 8.33317C6.44573 8.33317 6.23377 8.42097 6.07749 8.57725C5.92121 8.73353 5.83342 8.94549 5.83342 9.1665V9.99984H4.16675C3.94573 9.99984 3.73377 9.91204 3.57749 9.75576C3.42121 9.59948 3.33341 9.38752 3.33341 9.1665V6.6665H16.6667V9.1665Z" fill="#414141"/>
</svg>
