<svg width="44" height="44" viewBox="0 0 44 44" fill="none" xmlns="http://www.w3.org/2000/svg">
<g clip-path="url(#clip0_3129_4372)">
<path d="M38.9571 7.31235C38.9571 5.70867 37.657 4.40869 36.0533 4.40869H34.1632C32.9938 4.40869 9.88041 4.40869 9.10791 4.40869C8.40022 4.40869 3.82207 4.40869 2.90374 4.40869C1.30023 4.40869 0 5.70875 0 7.31235V40.4617C0 41.2917 0.34882 42.0397 0.907156 42.5689H36.0533V43.3654H41.1396C42.3893 43.3654 43.4546 42.5759 43.864 41.4683C44.2032 40.5715 44.3232 42.2861 38.9571 7.31235Z" fill="#BABABA"/>
<path d="M40.7302 40.4618V18.8691L38.9571 7.31235C38.9571 5.70867 37.6569 4.40869 36.0533 4.40869C35.1025 4.40869 12.2051 4.40869 10.8811 4.40869H9.108H8.39875C6.75632 4.40869 7.30881 4.40869 4.67706 4.40869C3.07355 4.40869 1.77332 5.70867 1.77332 7.31235V40.4617C1.77332 41.2917 2.12214 42.0397 2.68047 42.5689H36.0534V43.3654H37.8266C39.4301 43.3655 40.7302 42.0656 40.7302 40.4618Z" fill="#A8A8A8"/>
<path d="M36.0533 4.40869C35.0371 4.40869 10.7813 4.40869 9.10791 4.40869C8.10606 4.40869 3.5811 4.40869 2.90374 4.40869C1.30023 4.40869 0 5.70875 0 7.31235V40.4617C0 42.0655 1.30023 43.3654 2.90374 43.3654H36.0532C37.6569 43.3654 38.957 42.0655 38.957 40.4617V7.31235C38.9571 5.70875 37.6569 4.40869 36.0533 4.40869Z" fill="#E6E6E6"/>
<path d="M1.77315 40.4618V7.31235C1.77315 5.70867 3.07338 4.40869 4.67689 4.40869C3.67744 4.40869 3.90638 4.40869 2.90374 4.40869C1.30023 4.40869 0 5.70875 0 7.31235V40.4617C0 42.0655 1.30023 43.3654 2.90374 43.3654H4.67689C3.07347 43.3655 1.77315 42.0656 1.77315 40.4618Z" fill="#CCCBCA"/>
<path d="M36.0533 4.40869C34.8996 4.40869 11.0333 4.40869 9.10791 4.40869C2.23317 4.40869 9.33909 4.40869 2.90374 4.40869C1.30023 4.40869 0 5.70875 0 7.31235V14.7714H38.9571V7.31235C38.9571 5.70875 37.6569 4.40869 36.0533 4.40869Z" fill="#0064A7"/>
<path d="M1.77315 7.31235C1.77315 5.70867 3.07338 4.40869 4.67689 4.40869C3.67744 4.40869 3.90638 4.40869 2.90374 4.40869C1.30023 4.40869 0 5.70875 0 7.31235V14.7714H1.77315V7.31235Z" fill="#014C7F"/>
<path d="M31.0954 7.00464V7.60912C31.0954 8.19676 30.6192 8.22976 30.0315 8.22976H29.6769C29.0893 8.22976 28.613 8.19676 28.613 7.60912V7.00472C28.0504 7.39729 27.682 8.04887 27.682 8.7869C27.682 9.98658 28.6546 10.9591 29.8542 10.9591C31.9817 10.959 32.8268 8.21292 31.0954 7.00464Z" fill="#414356"/>
<path d="M20.1017 7.00464V7.60912C20.1017 8.19676 19.6254 8.14108 19.0378 8.14108H18.6831C18.0955 8.14108 17.6192 8.19676 17.6192 7.60912V7.00472C17.0566 7.39729 16.6882 8.04887 16.6882 8.7869C16.6882 9.98658 17.6608 10.9591 18.8604 10.9591C20.0601 10.9591 21.0325 9.98658 21.0325 8.7869C21.0325 8.04887 20.6641 7.3972 20.1017 7.00464Z" fill="#414356"/>
<path d="M9.10793 7.00464V7.60912C9.10793 8.29422 8.46314 8.22976 7.68936 8.22976C7.10181 8.22976 6.62546 8.19676 6.62546 7.60912V7.00472C4.89236 8.21421 5.74185 10.9591 7.86665 10.9591C9.06634 10.9591 10.0388 9.98658 10.0388 8.7869C10.0388 8.04887 9.67039 7.3972 9.10793 7.00464Z" fill="#414356"/>
<path d="M29.5438 8.78705C29.5438 8.74589 29.5454 8.70516 29.5476 8.66459C29.021 8.60074 28.6128 8.15309 28.6128 7.60928V7.00488C28.0503 7.39745 27.6819 8.04902 27.6819 8.78705C27.6819 9.98674 28.6544 10.9592 29.854 10.9592C30.1872 10.9592 30.5028 10.884 30.785 10.7499C30.0512 10.4012 29.5438 9.65348 29.5438 8.78705Z" fill="#2F3242"/>
<path d="M18.5502 8.78705C18.5502 8.74589 18.5517 8.70516 18.5539 8.66459C18.0274 8.60074 17.6192 8.15309 17.6192 7.60928V7.00488C17.0566 7.39745 16.6882 8.04902 16.6882 8.78705C16.6882 9.98674 17.6608 10.9592 18.8604 10.9592C19.1936 10.9592 19.5091 10.884 19.7913 10.7499C19.0575 10.4012 18.5502 9.65348 18.5502 8.78705Z" fill="#2F3242"/>
<path d="M7.56016 8.66459C7.03362 8.60074 6.62542 8.15309 6.62542 7.60928V7.00488C6.06287 7.39745 5.69446 8.04902 5.69446 8.78705C5.69446 10.3869 7.36543 11.4304 8.79749 10.7499C8.01941 10.3801 7.5098 9.57184 7.56016 8.66459Z" fill="#2F3242"/>
<path d="M38.9572 14.771H0V17.2535H38.9572V14.771Z" fill="#E2ECFB"/>
<path d="M1.77315 14.771H0V17.2535H1.77315V14.771Z" fill="#99C1DC"/>
<path d="M8.04406 0.634766C8.6317 0.634766 9.10796 1.11112 9.10796 1.69867V7.60928C9.10796 8.19692 8.6317 8.67319 8.04406 8.67319H7.68939C7.10184 8.67319 6.62549 8.19692 6.62549 7.60928V1.69867C6.62549 1.11112 7.10184 0.634766 7.68939 0.634766H8.04406Z" fill="#585A60"/>
<path d="M19.0377 0.634766C19.6254 0.634766 20.1016 1.11112 20.1016 1.69867V7.60928C20.1016 8.19692 19.6254 8.67319 19.0377 8.67319H18.683C18.0955 8.67319 17.6191 8.19692 17.6191 7.60928V1.69867C17.6191 1.11112 18.0955 0.634766 18.683 0.634766H19.0377Z" fill="#585A60"/>
<path d="M30.0315 0.634766C30.6191 0.634766 31.0954 1.11112 31.0954 1.69867V7.60928C31.0954 8.19692 30.6191 8.67319 30.0315 8.67319H29.6768C29.0893 8.67319 28.6129 8.19692 28.6129 7.60928V1.69867C28.6129 1.11112 29.0893 0.634766 29.6768 0.634766H30.0315Z" fill="#585A60"/>
<path d="M8.04406 0.634766C8.6317 0.634766 9.10796 1.11112 9.10796 1.69867V7.60928C9.10796 8.19692 8.6317 8.67319 8.04406 8.67319H7.68939C7.10184 8.67319 6.62549 8.19692 6.62549 7.60928V1.69867C6.62549 1.11112 7.10184 0.634766 7.68939 0.634766H8.04406Z" fill="#585A60"/>
<path d="M19.0377 0.634766C19.6254 0.634766 20.1016 1.11112 20.1016 1.69867V7.60928C20.1016 8.19692 19.6254 8.67319 19.0377 8.67319H18.683C18.0955 8.67319 17.6191 8.19692 17.6191 7.60928V1.69867C17.6191 1.11112 18.0955 0.634766 18.683 0.634766H19.0377Z" fill="#585A60"/>
<path d="M30.0315 0.634766C30.6191 0.634766 31.0954 1.11112 31.0954 1.69867V7.60928C31.0954 8.19692 30.6191 8.67319 30.0315 8.67319H29.6768C29.0893 8.67319 28.6129 8.19692 28.6129 7.60928V1.69867C28.6129 1.11112 29.0893 0.634766 29.6768 0.634766H30.0315Z" fill="#585A60"/>
<path d="M7.86668 7.60928V1.69867C7.86668 1.2695 8.1214 0.900656 8.48732 0.732391C8.35223 0.670344 8.20244 0.634766 8.04406 0.634766H7.68939C7.10184 0.634766 6.62549 1.11112 6.62549 1.69867V7.60928C6.62549 8.19692 7.10184 8.67319 7.68939 8.67319H8.04406C8.20253 8.67319 8.35232 8.63761 8.48732 8.57556C8.1214 8.40738 7.86668 8.03845 7.86668 7.60928Z" fill="#414356"/>
<path d="M18.8605 7.60928V1.69867C18.8605 1.2695 19.1152 0.900656 19.4811 0.732391C19.346 0.670344 19.1962 0.634766 19.0378 0.634766H18.6832C18.0956 0.634766 17.6193 1.11112 17.6193 1.69867V7.60928C17.6193 8.19692 18.0956 8.67319 18.6832 8.67319H19.0378C19.1963 8.67319 19.3461 8.63761 19.4811 8.57556C19.1152 8.40738 18.8605 8.03845 18.8605 7.60928Z" fill="#414356"/>
<path d="M29.8541 7.60928V1.69867C29.8541 1.2695 30.1088 0.900656 30.4747 0.732391C30.3397 0.670344 30.1899 0.634766 30.0315 0.634766H29.6768C29.0893 0.634766 28.6129 1.11112 28.6129 1.69867V7.60928C28.6129 8.19692 29.0893 8.67319 29.6768 8.67319H30.0315C30.19 8.67319 30.3397 8.63761 30.4747 8.57556C30.1088 8.40738 29.8541 8.03845 29.8541 7.60928Z" fill="#414356"/>
<path d="M14.4895 21.3279H12.3004C11.9331 21.3279 11.6354 21.6256 11.6354 21.9929C11.6354 22.3601 11.9331 22.6578 12.3004 22.6578H14.4895C14.8568 22.6578 15.1545 22.3602 15.1545 21.9929C15.1545 21.6257 14.8568 21.3279 14.4895 21.3279Z" fill="#585A60"/>
<path d="M20.5757 21.3279H18.3863C18.0191 21.3279 17.7213 21.6256 17.7213 21.9929C17.7213 22.3601 18.0191 22.6578 18.3863 22.6578H20.5757C20.943 22.6578 21.2407 22.3602 21.2407 21.9929C21.2406 21.6257 20.943 21.3279 20.5757 21.3279Z" fill="#585A60"/>
<path d="M26.6619 21.3279H24.4724C24.1051 21.3279 23.8074 21.6256 23.8074 21.9929C23.8074 22.3601 24.1051 22.6578 24.4724 22.6578H26.6619C27.0291 22.6578 27.3269 22.3602 27.3269 21.9929C27.3269 21.6257 27.0291 21.3279 26.6619 21.3279Z" fill="#585A60"/>
<path d="M32.7477 21.3279H30.5583C30.1911 21.3279 29.8933 21.6256 29.8933 21.9929C29.8933 22.3601 30.1911 22.6578 30.5583 22.6578H32.7477C33.115 22.6578 33.4127 22.3602 33.4127 21.9929C33.4126 21.6257 33.115 21.3279 32.7477 21.3279Z" fill="#585A60"/>
<path d="M8.40373 26.6853H6.2143C5.84709 26.6853 5.54932 26.983 5.54932 27.3503C5.54932 27.7175 5.84709 28.0153 6.2143 28.0153H8.40373C8.77103 28.0153 9.06872 27.7176 9.06872 27.3503C9.06863 26.983 8.77103 26.6853 8.40373 26.6853Z" fill="#585A60"/>
<path d="M14.4895 26.6853H12.3004C11.9331 26.6853 11.6354 26.983 11.6354 27.3503C11.6354 27.7175 11.9331 28.0153 12.3004 28.0153H14.4895C14.8568 28.0153 15.1545 27.7176 15.1545 27.3503C15.1545 26.983 14.8568 26.6853 14.4895 26.6853Z" fill="#585A60"/>
<path d="M20.5757 26.6853H18.3863C18.0191 26.6853 17.7213 26.983 17.7213 27.3503C17.7213 27.7175 18.0191 28.0153 18.3863 28.0153H20.5757C20.943 28.0153 21.2407 27.7176 21.2407 27.3503C21.2406 26.983 20.943 26.6853 20.5757 26.6853Z" fill="#585A60"/>
<path d="M26.6619 26.6853H24.4724C24.1051 26.6853 23.8074 26.983 23.8074 27.3503C23.8074 27.7175 24.1051 28.0153 24.4724 28.0153H26.6619C27.0291 28.0153 27.3269 27.7176 27.3269 27.3503C27.3269 26.983 27.0291 26.6853 26.6619 26.6853Z" fill="#585A60"/>
<path d="M32.7477 26.6853H30.5583C30.1911 26.6853 29.8933 26.983 29.8933 27.3503C29.8933 27.7175 30.1911 28.0153 30.5583 28.0153H32.7477C33.115 28.0153 33.4127 27.7176 33.4127 27.3503C33.4126 26.983 33.115 26.6853 32.7477 26.6853Z" fill="#585A60"/>
<path d="M8.40373 32.0425H6.2143C5.84709 32.0425 5.54932 32.3402 5.54932 32.7075C5.54932 33.0748 5.84709 33.3724 6.2143 33.3724H8.40373C8.77103 33.3724 9.06872 33.0748 9.06872 32.7075C9.06872 32.3402 8.77103 32.0425 8.40373 32.0425Z" fill="#585A60"/>
<path d="M14.4895 32.0425H12.3004C11.9331 32.0425 11.6354 32.3402 11.6354 32.7075C11.6354 33.0748 11.9331 33.3724 12.3004 33.3724H14.4895C14.8568 33.3724 15.1545 33.0748 15.1545 32.7075C15.1545 32.3402 14.8568 32.0425 14.4895 32.0425Z" fill="#585A60"/>
<path d="M20.5757 32.0425H18.3863C18.0191 32.0425 17.7213 32.3402 17.7213 32.7075C17.7213 33.0748 18.0191 33.3724 18.3863 33.3724H20.5757C20.943 33.3724 21.2407 33.0748 21.2407 32.7075C21.2407 32.3402 20.943 32.0425 20.5757 32.0425Z" fill="#585A60"/>
<path d="M26.6619 32.0425H24.4724C24.1051 32.0425 23.8074 32.3402 23.8074 32.7075C23.8074 33.0748 24.1051 33.3724 24.4724 33.3724H26.6619C27.0291 33.3724 27.3269 33.0748 27.3269 32.7075C27.3269 32.3402 27.0291 32.0425 26.6619 32.0425Z" fill="#585A60"/>
<path d="M32.7477 32.0425H30.5583C30.1911 32.0425 29.8933 32.3402 29.8933 32.7075C29.8933 33.0748 30.1911 33.3724 30.5583 33.3724H32.7477C33.115 33.3724 33.4127 33.0748 33.4127 32.7075C33.4127 32.3402 33.115 32.0425 32.7477 32.0425Z" fill="#585A60"/>
<path d="M8.40373 37.3999H6.2143C5.84709 37.3999 5.54932 37.6976 5.54932 38.0649C5.54932 38.4321 5.84709 38.7299 6.2143 38.7299H8.40373C8.77103 38.7299 9.06872 38.4322 9.06872 38.0649C9.06863 37.6976 8.77103 37.3999 8.40373 37.3999Z" fill="#585A60"/>
<path d="M14.4895 37.3999H12.3004C11.9331 37.3999 11.6354 37.6976 11.6354 38.0649C11.6354 38.4321 11.9331 38.7299 12.3004 38.7299H14.4895C14.8568 38.7299 15.1545 38.4322 15.1545 38.0649C15.1545 37.6976 14.8568 37.3999 14.4895 37.3999Z" fill="#585A60"/>
<path d="M20.5757 37.3999H18.3863C18.0191 37.3999 17.7213 37.6976 17.7213 38.0649C17.7213 38.4321 18.0191 38.7299 18.3863 38.7299H20.5757C20.943 38.7299 21.2407 38.4322 21.2407 38.0649C21.2406 37.6976 20.943 37.3999 20.5757 37.3999Z" fill="#585A60"/>
<path d="M26.6619 37.3999H24.4724C24.1051 37.3999 23.8074 37.6976 23.8074 38.0649C23.8074 38.4321 24.1051 38.7299 24.4724 38.7299H26.6619C27.0291 38.7299 27.3269 38.4322 27.3269 38.0649C27.3269 37.6976 27.0291 37.3999 26.6619 37.3999Z" fill="#585A60"/>
</g>
<defs>
<clipPath id="clip0_3129_4372">
<rect width="44" height="44" fill="white"/>
</clipPath>
</defs>
</svg>
