<svg width="71" height="71" viewBox="0 0 71 71" fill="none" xmlns="http://www.w3.org/2000/svg">
<path d="M35.5 68.3125C53.6218 68.3125 68.3125 53.6218 68.3125 35.5C68.3125 17.3782 53.6218 2.6875 35.5 2.6875C17.3782 2.6875 2.6875 17.3782 2.6875 35.5C2.6875 53.6218 17.3782 68.3125 35.5 68.3125Z" fill="#0065E5"/>
<path d="M56.8809 14.441C56.8809 14.441 33.2397 15.444 23.4752 21.4161C15.7981 26.1117 9.747 38.8226 20.2611 51.0608L46.2959 48.3444L56.8809 14.441Z" fill="#A8E276"/>
<path d="M56.8805 14.441C56.8805 14.441 55.8776 38.0822 49.9054 47.8467C45.21 55.5238 32.4989 61.575 20.2607 51.0608L56.8805 14.441Z" fill="#6EC159"/>
<path d="M46.2714 21.6203L39.5563 28.3356L39.1491 22.2054L35.3123 22.4604L35.9427 31.9492L29.8575 38.0342L29.4503 31.9042L25.6135 32.159L26.2439 41.6478L12.7295 55.1624L14.4448 56.8777H16.8535L48.5319 25.3135L47.9869 23.3357L46.2714 21.6203Z" fill="#6EC159"/>
<path d="M33.2878 41.4651L39.373 35.38L48.8617 36.0104L49.1166 32.1736L42.9866 31.7663L49.7018 25.0511L47.9864 23.3356L14.4443 56.8777L16.1597 58.5932L29.6742 45.0787L39.163 45.709L39.4179 41.8723L33.2878 41.4651Z" fill="#3D9B3D"/>
</svg>
