<svg width="80" height="79" viewBox="0 0 80 79" fill="none" xmlns="http://www.w3.org/2000/svg">
<path d="M39.9999 6.5835C21.8958 6.5835 7.08325 21.396 7.08325 39.5002C7.08325 57.6043 21.8958 72.4168 39.9999 72.4168C58.1041 72.4168 72.9166 57.6043 72.9166 39.5002C72.9166 21.396 58.1041 6.5835 39.9999 6.5835ZM53.8249 33.9043L38.0249 49.7043C36.7082 51.021 34.7333 51.021 33.4166 49.7043L26.1749 42.4627C24.8583 41.146 24.8583 39.171 26.1749 37.8543C27.4916 36.5377 29.4666 36.5377 30.7833 37.8543L35.7207 42.7918L49.2166 29.296C50.5333 27.9793 52.5083 27.9793 53.8249 29.296C55.1416 30.6127 55.1416 32.5877 53.8249 33.9043Z" fill="#0D824B"/>
</svg>
