<svg width="21" height="22" viewBox="0 0 21 22" fill="none" xmlns="http://www.w3.org/2000/svg">
<path d="M16.3709 6.80863C16.2896 6.72662 16.1928 6.66152 16.0862 6.6171C15.9795 6.57268 15.8652 6.5498 15.7497 6.5498C15.6341 6.5498 15.5198 6.57268 15.4131 6.6171C15.3065 6.66152 15.2097 6.72662 15.1284 6.80863L8.60965 13.3361L5.8709 10.5886C5.78644 10.507 5.68675 10.4429 5.5775 10.3998C5.46825 10.3568 5.35159 10.3357 5.23418 10.3377C5.11677 10.3397 5.00092 10.3649 4.89322 10.4117C4.78553 10.4585 4.68811 10.526 4.60653 10.6105C4.52494 10.695 4.46079 10.7947 4.41774 10.9039C4.37469 11.0132 4.35357 11.1298 4.3556 11.2472C4.35763 11.3646 4.38277 11.4805 4.42958 11.5882C4.47638 11.6959 4.54394 11.7933 4.6284 11.8749L7.9884 15.2349C8.06974 15.3169 8.16652 15.382 8.27315 15.4264C8.37977 15.4708 8.49414 15.4937 8.60965 15.4937C8.72516 15.4937 8.83953 15.4708 8.94616 15.4264C9.05278 15.382 9.14956 15.3169 9.2309 15.2349L16.3709 8.09488C16.4597 8.01294 16.5306 7.9135 16.5791 7.80281C16.6276 7.69212 16.6526 7.57259 16.6526 7.45175C16.6526 7.33091 16.6276 7.21138 16.5791 7.1007C16.5306 6.99001 16.4597 6.89057 16.3709 6.80863Z" fill="white"/>
</svg>
