<svg width="29" height="29" viewBox="0 0 29 29" fill="none" xmlns="http://www.w3.org/2000/svg">
<path d="M25.1213 2.83398H4.35462C4.01426 2.83398 3.68784 2.96919 3.44717 3.20986C3.2065 3.45054 3.07129 3.77696 3.07129 4.11732V24.884C3.07129 25.0525 3.10448 25.2194 3.16898 25.3751C3.23347 25.5308 3.328 25.6723 3.44717 25.7914C3.56634 25.9106 3.70781 26.0051 3.86351 26.0696C4.01921 26.1341 4.18609 26.1673 4.35462 26.1673H15.5313V17.1257H12.498V13.6257H15.5313V11.0007C15.4685 10.3844 15.5412 9.7618 15.7445 9.17661C15.9477 8.59142 16.2765 8.05779 16.7078 7.61313C17.1391 7.16847 17.6625 6.82357 18.2413 6.6026C18.82 6.38163 19.44 6.28994 20.058 6.33398C20.966 6.3284 21.8736 6.37514 22.7763 6.47398V9.62398H20.9213C19.4513 9.62398 19.1713 10.324 19.1713 11.339V13.5907H22.6713L22.2163 17.0907H19.1713V26.1673H25.1213C25.2898 26.1673 25.4567 26.1341 25.6124 26.0696C25.7681 26.0051 25.9096 25.9106 26.0287 25.7914C26.1479 25.6723 26.2424 25.5308 26.3069 25.3751C26.3714 25.2194 26.4046 25.0525 26.4046 24.884V4.11732C26.4046 3.94879 26.3714 3.78191 26.3069 3.62621C26.2424 3.47051 26.1479 3.32903 26.0287 3.20986C25.9096 3.0907 25.7681 2.99617 25.6124 2.93167C25.4567 2.86718 25.2898 2.83398 25.1213 2.83398Z" fill="#0064A7"/>
</svg>
