<svg width="20" height="18" viewBox="0 0 20 18" fill="none" xmlns="http://www.w3.org/2000/svg">
<path d="M6.25 11.25V17.25C6.25 17.4489 6.32902 17.6397 6.46967 17.7803C6.61032 17.921 6.80109 18 7 18H13C13.1989 18 13.3897 17.921 13.5303 17.7803C13.671 17.6397 13.75 17.4489 13.75 17.25V11.25H6.25ZM11.5 16.5H8.5C8.30109 16.5 8.11032 16.421 7.96967 16.2803C7.82902 16.1397 7.75 15.9489 7.75 15.75C7.75 15.5511 7.82902 15.3603 7.96967 15.2197C8.11032 15.079 8.30109 15 8.5 15H11.5C11.6989 15 11.8897 15.079 12.0303 15.2197C12.171 15.3603 12.25 15.5511 12.25 15.75C12.25 15.9489 12.171 16.1397 12.0303 16.2803C11.8897 16.421 11.6989 16.5 11.5 16.5ZM11.5 14.25H8.5C8.30109 14.25 8.11032 14.171 7.96967 14.0303C7.82902 13.8897 7.75 13.6989 7.75 13.5C7.75 13.3011 7.82902 13.1103 7.96967 12.9697C8.11032 12.829 8.30109 12.75 8.5 12.75H11.5C11.6989 12.75 11.8897 12.829 12.0303 12.9697C12.171 13.1103 12.25 13.3011 12.25 13.5C12.25 13.6989 12.171 13.8897 12.0303 14.0303C11.8897 14.171 11.6989 14.25 11.5 14.25Z" fill="#DBDBDB"/>
<path d="M17.5 4.5H2.5C2.20442 4.49961 1.91166 4.55754 1.6385 4.67047C1.36534 4.7834 1.11714 4.94912 0.908131 5.15813C0.699121 5.36714 0.533402 5.61534 0.420469 5.8885C0.307536 6.16166 0.249607 6.45442 0.250002 6.75V12.75C0.251743 13.3462 0.489355 13.9175 0.910935 14.3391C1.33252 14.7606 1.9038 14.9983 2.5 15H4.75V10.5C4.75058 10.3013 4.82978 10.1108 4.97031 9.97031C5.11083 9.82978 5.30127 9.75058 5.5 9.75H14.5C14.6987 9.75058 14.8892 9.82978 15.0297 9.97031C15.1702 10.1108 15.2494 10.3013 15.25 10.5V15H17.5C18.0962 14.9983 18.6675 14.7606 19.0891 14.3391C19.5106 13.9175 19.7483 13.3462 19.75 12.75V6.75C19.7504 6.45442 19.6925 6.16166 19.5795 5.8885C19.4666 5.61534 19.3009 5.36714 19.0919 5.15813C18.8829 4.94912 18.6347 4.7834 18.3615 4.67047C18.0883 4.55754 17.7956 4.49961 17.5 4.5ZM16 8.25C15.9012 8.25112 15.8032 8.23248 15.7117 8.19518C15.6202 8.15789 15.5371 8.10268 15.4672 8.03282C15.3973 7.96295 15.3421 7.87983 15.3048 7.78833C15.2675 7.69683 15.2489 7.5988 15.25 7.5C15.25 7.35167 15.294 7.20666 15.3764 7.08332C15.4588 6.95999 15.5759 6.86386 15.713 6.80709C15.85 6.75033 16.0008 6.73547 16.1463 6.76441C16.2918 6.79335 16.4254 6.86478 16.5303 6.96967C16.6352 7.07456 16.7067 7.2082 16.7356 7.35368C16.7645 7.49917 16.7497 7.64997 16.6929 7.78701C16.6361 7.92406 16.54 8.04119 16.4167 8.1236C16.2933 8.20602 16.1483 8.25 16 8.25Z" fill="#DBDBDB"/>
<path d="M15.25 0.75V3.75H4.75V0.75C4.75057 0.551264 4.82978 0.360832 4.9703 0.220304C5.11083 0.0797757 5.30126 0.000573841 5.5 0H14.5C14.6987 0.000573841 14.8892 0.0797757 15.0297 0.220304C15.1702 0.360832 15.2494 0.551264 15.25 0.75Z" fill="#DBDBDB"/>
</svg>
