<svg width="29" height="29" viewBox="0 0 29 29" fill="none" xmlns="http://www.w3.org/2000/svg">
<path d="M14.4743 11.6073C13.902 11.6073 13.3426 11.777 12.8668 12.0949C12.391 12.4129 12.0202 12.8647 11.8012 13.3934C11.5822 13.9221 11.5249 14.5039 11.6365 15.0651C11.7482 15.6264 12.0237 16.1419 12.4284 16.5465C12.833 16.9512 13.3486 17.2267 13.9098 17.3384C14.4711 17.45 15.0528 17.3927 15.5815 17.1737C16.1102 16.9548 16.5621 16.5839 16.88 16.1081C17.1979 15.6323 17.3676 15.0729 17.3676 14.5007C17.3676 14.1207 17.2928 13.7445 17.1474 13.3934C17.002 13.0424 16.7888 12.7234 16.5202 12.4548C16.2515 12.1861 15.9325 11.973 15.5815 11.8276C15.2305 11.6822 14.8542 11.6073 14.4743 11.6073ZM26.0593 8.74898C26.0531 7.84804 25.8872 6.95532 25.5693 6.11232C25.3351 5.49545 24.9728 4.93526 24.5062 4.4687C24.0397 4.00214 23.4795 3.63982 22.8626 3.40565C22.0196 3.08769 21.1269 2.92179 20.226 2.91565C18.721 2.83398 18.2776 2.83398 14.4743 2.83398C10.671 2.83398 10.2276 2.83398 8.72262 2.91565C7.82167 2.92179 6.92895 3.08769 6.08595 3.40565C5.46909 3.63982 4.90889 4.00214 4.44233 4.4687C3.97577 4.93526 3.61345 5.49545 3.37928 6.11232C3.06132 6.95532 2.89542 7.84804 2.88928 8.74898C2.80762 10.254 2.80762 10.6973 2.80762 14.5007C2.80762 18.304 2.80762 18.7473 2.88928 20.2523C2.90184 21.1564 3.06752 22.0519 3.37928 22.9007C3.61242 23.5147 3.97443 24.0716 4.44095 24.534C4.90551 25.0033 5.4669 25.3657 6.08595 25.5956C6.92895 25.9136 7.82167 26.0795 8.72262 26.0857C10.2276 26.1673 10.671 26.1673 14.4743 26.1673C18.2776 26.1673 18.721 26.1673 20.226 26.0857C21.1269 26.0795 22.0196 25.9136 22.8626 25.5956C23.4817 25.3657 24.0431 25.0033 24.5076 24.534C24.9741 24.0716 25.3362 23.5147 25.5693 22.9007C25.8869 22.0535 26.0528 21.157 26.0593 20.2523C26.1409 18.7473 26.1409 18.304 26.1409 14.5007C26.1409 10.6973 26.1409 10.254 26.0593 8.74898ZM23.0959 18.0823C23.0585 18.8023 22.9049 19.5114 22.6409 20.1823C22.4145 20.742 22.0778 21.2503 21.6509 21.6772C21.224 22.1041 20.7156 22.4408 20.156 22.6673C19.4787 22.9165 18.7656 23.0544 18.0443 23.0757C17.1226 23.0757 16.8776 23.0757 14.4743 23.0757C12.071 23.0757 11.8259 23.0757 10.9043 23.0757C10.183 23.0544 9.46985 22.9165 8.79262 22.6673C8.21407 22.4523 7.69161 22.1093 7.26428 21.664C6.84156 21.2454 6.5151 20.7398 6.30762 20.1823C6.05743 19.5058 5.92332 18.7919 5.91095 18.0707C5.91095 17.149 5.91095 16.904 5.91095 14.5007C5.91095 12.0973 5.91095 11.8523 5.91095 10.9307C5.92332 10.2094 6.05743 9.49552 6.30762 8.81898C6.52261 8.24044 6.8656 7.71797 7.31095 7.29065C7.73134 6.87021 8.23642 6.54409 8.79262 6.33398C9.46985 6.08479 10.183 5.9469 10.9043 5.92565C11.8259 5.92565 12.071 5.92565 14.4743 5.92565C16.8776 5.92565 17.1226 5.92565 18.0443 5.92565C18.7656 5.9469 19.4787 6.08479 20.156 6.33398C20.7345 6.54898 21.257 6.89197 21.6843 7.33732C22.107 7.75586 22.4335 8.26147 22.6409 8.81898C22.8901 9.49622 23.028 10.2093 23.0493 10.9307C23.0493 11.8523 23.0493 12.0973 23.0493 14.5007C23.0493 16.904 23.1309 17.149 23.0959 18.0707V18.0823ZM21.2293 9.40232C21.0904 9.02547 20.8714 8.68323 20.5874 8.39923C20.3034 8.11523 19.9611 7.89622 19.5843 7.75732C19.0668 7.57795 18.5219 7.49107 17.9743 7.50065C17.0643 7.50065 16.8076 7.50065 14.4743 7.50065C12.141 7.50065 11.8843 7.50065 10.9743 7.50065C10.4239 7.50603 9.87886 7.60872 9.36428 7.80398C8.9932 7.93658 8.65459 8.14665 8.37096 8.42022C8.08734 8.69379 7.86519 9.02459 7.71928 9.39065C7.54986 9.91024 7.46708 10.4542 7.47428 11.0007C7.47428 11.9107 7.47428 12.1673 7.47428 14.5007C7.47428 16.834 7.47428 17.0907 7.47428 18.0007C7.48585 18.5504 7.58835 19.0944 7.77762 19.6106C7.91652 19.9875 8.13553 20.3297 8.41953 20.6137C8.70353 20.8977 9.04577 21.1167 9.42262 21.2557C9.92039 21.4387 10.4442 21.5411 10.9743 21.559C11.8843 21.559 12.141 21.559 14.4743 21.559C16.8076 21.559 17.0643 21.559 17.9743 21.559C18.5246 21.5536 19.0697 21.4509 19.5843 21.2557C19.9611 21.1167 20.3034 20.8977 20.5874 20.6137C20.8714 20.3297 21.0904 19.9875 21.2293 19.6106C21.4245 19.0961 21.5272 18.551 21.5326 18.0007C21.5326 17.0907 21.5326 16.834 21.5326 14.5007C21.5326 12.1673 21.5326 11.9107 21.5326 11.0007C21.533 10.4497 21.4301 9.90366 21.2293 9.39065V9.40232ZM14.4743 18.9573C13.8896 18.9573 13.3106 18.842 12.7706 18.6178C12.2305 18.3937 11.74 18.0653 11.3271 17.6513C10.9142 17.2373 10.587 16.7459 10.3643 16.2053C10.1416 15.6646 10.0277 15.0854 10.0293 14.5007C10.0293 13.6187 10.291 12.7566 10.7812 12.0235C11.2714 11.2903 11.9681 10.7191 12.7832 10.3821C13.5982 10.0452 14.4949 9.95758 15.3597 10.1305C16.2245 10.3034 17.0186 10.729 17.6414 11.3535C18.2642 11.9779 18.6878 12.7731 18.8584 13.6384C19.029 14.5036 18.9391 15.4001 18.6 16.2142C18.2609 17.0284 17.6879 17.7236 16.9534 18.2119C16.219 18.7002 15.3562 18.9596 14.4743 18.9573ZM19.1409 10.919C18.883 10.8917 18.6444 10.7699 18.4709 10.5771C18.2975 10.3843 18.2015 10.1342 18.2015 9.87482C18.2015 9.61548 18.2975 9.36531 18.4709 9.17252C18.6444 8.97973 18.883 8.85795 19.1409 8.83065C19.3988 8.85795 19.6375 8.97973 19.811 9.17252C19.9844 9.36531 20.0804 9.61548 20.0804 9.87482C20.0804 10.1342 19.9844 10.3843 19.811 10.5771C19.6375 10.7699 19.3988 10.8917 19.1409 10.919Z" fill="#0064A7"/>
</svg>
