<svg width="46" height="46" viewBox="0 0 46 46" fill="none" xmlns="http://www.w3.org/2000/svg">
    <path d="M16.5393 23.1039L27.3876 33.9331C27.5658 34.1127 27.7778 34.2553 28.0113 34.3526C28.2449 34.4499 28.4954 34.5 28.7484 34.5C29.0015 34.5 29.252 34.4499 29.4855 34.3526C29.7191 34.2553 29.9311 34.1127 30.1093 33.9331C30.4663 33.574 30.6666 33.0882 30.6666 32.5818C30.6666 32.0755 30.4663 31.5897 30.1093 31.2306L20.6218 21.6473L30.1093 12.1598C30.4663 11.8006 30.6666 11.3149 30.6666 10.8085C30.6666 10.3022 30.4663 9.81637 30.1093 9.45726C29.9318 9.27616 29.7201 9.13208 29.4865 9.03338C29.2529 8.93468 29.002 8.88332 28.7484 8.88226C28.4949 8.88332 28.244 8.93468 28.0104 9.03338C27.7768 9.13208 27.5651 9.27616 27.3876 9.45726L16.5393 20.2864C16.3447 20.4659 16.1895 20.6837 16.0833 20.9262C15.9771 21.1687 15.9222 21.4305 15.9222 21.6952C15.9222 21.9599 15.9771 22.2217 16.0833 22.4642C16.1895 22.7066 16.3447 22.9244 16.5393 23.1039Z"
          fill="white"/>
</svg>
