<svg width="33" height="33" viewBox="0 0 33 33" fill="none" xmlns="http://www.w3.org/2000/svg">
<path d="M30.2638 0.250227H2.73625C2.42682 0.24593 2.11957 0.302629 1.83205 0.417088C1.54453 0.531547 1.28237 0.701523 1.06055 0.917309C0.838728 1.1331 0.661586 1.39046 0.539241 1.67472C0.416895 1.95897 0.351742 2.26454 0.347504 2.57398V30.4265C0.351742 30.7359 0.416895 31.0415 0.539241 31.3257C0.661586 31.61 0.838728 31.8674 1.06055 32.0831C1.28237 32.2989 1.54453 32.4689 1.83205 32.5834C2.11957 32.6978 2.42682 32.7545 2.73625 32.7502H30.2638C30.5732 32.7545 30.8804 32.6978 31.168 32.5834C31.4555 32.4689 31.7176 32.2989 31.9395 32.0831C32.1613 31.8674 32.3384 31.61 32.4608 31.3257C32.5831 31.0415 32.6483 30.7359 32.6525 30.4265V2.57398C32.6483 2.26454 32.5831 1.95897 32.4608 1.67472C32.3384 1.39046 32.1613 1.1331 31.9395 0.917309C31.7176 0.701523 31.4555 0.531547 31.168 0.417088C30.8804 0.302629 30.5732 0.24593 30.2638 0.250227ZM10.1463 27.4527H5.27125V12.8277H10.1463V27.4527ZM7.70875 10.7802C7.03643 10.7802 6.39164 10.5131 5.91624 10.0377C5.44083 9.56234 5.17375 8.91755 5.17375 8.24523C5.17375 7.5729 5.44083 6.92812 5.91624 6.45271C6.39164 5.97731 7.03643 5.71023 7.70875 5.71023C8.06576 5.66974 8.42729 5.70512 8.76968 5.81404C9.11206 5.92296 9.42758 6.10297 9.69557 6.34229C9.96356 6.58161 10.178 6.87483 10.3248 7.20276C10.4716 7.53069 10.5475 7.88593 10.5475 8.24523C10.5475 8.60452 10.4716 8.95976 10.3248 9.28769C10.178 9.61562 9.96356 9.90885 9.69557 10.1482C9.42758 10.3875 9.11206 10.5675 8.76968 10.6764C8.42729 10.7853 8.06576 10.8207 7.70875 10.7802ZM27.7288 27.4527H22.8538V19.604C22.8538 17.6377 22.155 16.354 20.3838 16.354C19.8356 16.358 19.3018 16.5299 18.8544 16.8466C18.4069 17.1633 18.0673 17.6096 17.8813 18.1252C17.7541 18.5072 17.699 18.9094 17.7188 19.3115V27.4365H12.8438C12.8438 27.4365 12.8438 14.144 12.8438 12.8115H17.7188V14.8752C18.1616 14.1068 18.8057 13.4737 19.5817 13.0442C20.3577 12.6147 21.2362 12.405 22.1225 12.4377C25.3725 12.4377 27.7288 14.534 27.7288 19.0352V27.4527Z" fill="white"/>
</svg>
