<svg width="29" height="29" viewBox="0 0 29 29" fill="none" xmlns="http://www.w3.org/2000/svg">
<path d="M24.0926 2.83317H4.32926C4.1071 2.83009 3.88651 2.87079 3.68008 2.95297C3.47366 3.03514 3.28544 3.15718 3.12619 3.3121C2.96693 3.46702 2.83975 3.6518 2.75192 3.85588C2.66408 4.05996 2.6173 4.27935 2.61426 4.5015V24.4982C2.6173 24.7203 2.66408 24.9397 2.75192 25.1438C2.83975 25.3479 2.96693 25.5326 3.12619 25.6876C3.28544 25.8425 3.47366 25.9645 3.68008 26.0467C3.88651 26.1289 4.1071 26.1696 4.32926 26.1665H24.0926C24.3147 26.1696 24.5353 26.1289 24.7418 26.0467C24.9482 25.9645 25.1364 25.8425 25.2957 25.6876C25.4549 25.5326 25.5821 25.3479 25.6699 25.1438C25.7578 24.9397 25.8045 24.7203 25.8076 24.4982V4.5015C25.8045 4.27935 25.7578 4.05996 25.6699 3.85588C25.5821 3.6518 25.4549 3.46702 25.2957 3.3121C25.1364 3.15718 24.9482 3.03514 24.7418 2.95297C24.5353 2.87079 24.3147 2.83009 24.0926 2.83317ZM9.64926 22.3632H6.14926V11.8632H9.64926V22.3632ZM7.89926 10.3932C7.41656 10.3932 6.95364 10.2014 6.61232 9.86011C6.27101 9.51879 6.07926 9.05587 6.07926 8.57317C6.07926 8.09048 6.27101 7.62755 6.61232 7.28624C6.95364 6.94492 7.41656 6.75317 7.89926 6.75317C8.15557 6.7241 8.41513 6.7495 8.66095 6.8277C8.90676 6.9059 9.13329 7.03514 9.32569 7.20696C9.5181 7.37878 9.67204 7.5893 9.77744 7.82473C9.88284 8.06017 9.93733 8.31522 9.93733 8.57317C9.93733 8.83113 9.88284 9.08617 9.77744 9.32161C9.67204 9.55705 9.5181 9.76757 9.32569 9.93938C9.13329 10.1112 8.90676 10.2404 8.66095 10.3186C8.41513 10.3968 8.15557 10.4222 7.89926 10.3932ZM22.2726 22.3632H18.7726V16.7282C18.7726 15.3165 18.2709 14.3948 16.9993 14.3948C16.6057 14.3977 16.2225 14.5212 15.9012 14.7485C15.58 14.9759 15.3362 15.2963 15.2026 15.6665C15.1113 15.9407 15.0717 16.2295 15.0859 16.5182V22.3515H11.5859C11.5859 22.3515 11.5859 12.8082 11.5859 11.8515H15.0859V13.3332C15.4039 12.7815 15.8663 12.3269 16.4234 12.0186C16.9806 11.7102 17.6113 11.5597 18.2476 11.5832C20.5809 11.5832 22.2726 13.0882 22.2726 16.3198V22.3632Z" fill="#0064A7"/>
</svg>
