<svg width="20" height="20" viewBox="0 0 20 20" fill="none" xmlns="http://www.w3.org/2000/svg">
<path d="M14.1667 9.16667H13.3334C13.1124 9.16667 12.9004 9.25446 12.7442 9.41074C12.5879 9.56702 12.5001 9.77899 12.5001 10C12.5001 10.221 12.5879 10.433 12.7442 10.5893C12.9004 10.7455 13.1124 10.8333 13.3334 10.8333H14.1667C14.3878 10.8333 14.5997 10.7455 14.756 10.5893C14.9123 10.433 15.0001 10.221 15.0001 10C15.0001 9.77899 14.9123 9.56702 14.756 9.41074C14.5997 9.25446 14.3878 9.16667 14.1667 9.16667ZM14.1667 12.5H13.3334C13.1124 12.5 12.9004 12.5878 12.7442 12.7441C12.5879 12.9004 12.5001 13.1123 12.5001 13.3333C12.5001 13.5543 12.5879 13.7663 12.7442 13.9226C12.9004 14.0789 13.1124 14.1667 13.3334 14.1667H14.1667C14.3878 14.1667 14.5997 14.0789 14.756 13.9226C14.9123 13.7663 15.0001 13.5543 15.0001 13.3333C15.0001 13.1123 14.9123 12.9004 14.756 12.7441C14.5997 12.5878 14.3878 12.5 14.1667 12.5ZM9.16675 7.5H14.1667C14.3878 7.5 14.5997 7.4122 14.756 7.25592C14.9123 7.09964 15.0001 6.88768 15.0001 6.66667C15.0001 6.44565 14.9123 6.23369 14.756 6.07741C14.5997 5.92113 14.3878 5.83333 14.1667 5.83333H9.16675C8.94573 5.83333 8.73377 5.92113 8.57749 6.07741C8.42121 6.23369 8.33342 6.44565 8.33342 6.66667C8.33342 6.88768 8.42121 7.09964 8.57749 7.25592C8.73377 7.4122 8.94573 7.5 9.16675 7.5ZM17.5001 2.5H5.83342C5.6124 2.5 5.40044 2.5878 5.24416 2.74408C5.08788 2.90036 5.00008 3.11232 5.00008 3.33333V5.83333H2.50008C2.27907 5.83333 2.06711 5.92113 1.91083 6.07741C1.75455 6.23369 1.66675 6.44565 1.66675 6.66667V15C1.66675 15.663 1.93014 16.2989 2.39898 16.7678C2.86782 17.2366 3.50371 17.5 4.16675 17.5H15.0001C15.8841 17.5 16.732 17.1488 17.3571 16.5237C17.9822 15.8986 18.3334 15.0507 18.3334 14.1667V3.33333C18.3334 3.11232 18.2456 2.90036 18.0893 2.74408C17.9331 2.5878 17.7211 2.5 17.5001 2.5ZM5.00008 15C5.00008 15.221 4.91228 15.433 4.756 15.5893C4.59972 15.7455 4.38776 15.8333 4.16675 15.8333C3.94573 15.8333 3.73377 15.7455 3.57749 15.5893C3.42121 15.433 3.33341 15.221 3.33341 15V7.5H5.00008V15ZM16.6667 14.1667C16.6667 14.6087 16.4912 15.0326 16.1786 15.3452C15.866 15.6577 15.4421 15.8333 15.0001 15.8333H6.51675C6.61377 15.5661 6.66449 15.2843 6.66675 15V4.16667H16.6667V14.1667ZM9.16675 10.8333H10.0001C10.2211 10.8333 10.4331 10.7455 10.5893 10.5893C10.7456 10.433 10.8334 10.221 10.8334 10C10.8334 9.77899 10.7456 9.56702 10.5893 9.41074C10.4331 9.25446 10.2211 9.16667 10.0001 9.16667H9.16675C8.94573 9.16667 8.73377 9.25446 8.57749 9.41074C8.42121 9.56702 8.33342 9.77899 8.33342 10C8.33342 10.221 8.42121 10.433 8.57749 10.5893C8.73377 10.7455 8.94573 10.8333 9.16675 10.8333ZM9.16675 14.1667H10.0001C10.2211 14.1667 10.4331 14.0789 10.5893 13.9226C10.7456 13.7663 10.8334 13.5543 10.8334 13.3333C10.8334 13.1123 10.7456 12.9004 10.5893 12.7441C10.4331 12.5878 10.2211 12.5 10.0001 12.5H9.16675C8.94573 12.5 8.73377 12.5878 8.57749 12.7441C8.42121 12.9004 8.33342 13.1123 8.33342 13.3333C8.33342 13.5543 8.42121 13.7663 8.57749 13.9226C8.73377 14.0789 8.94573 14.1667 9.16675 14.1667Z" fill="white"/>
</svg>
