<svg width="34" height="34" viewBox="0 0 34 34" fill="none" xmlns="http://www.w3.org/2000/svg">
<path d="M28.3119 28.3123C21.8318 34.7925 11.3402 34.7925 4.86008 28.3123C-1.62003 21.8321 -1.62003 11.3403 4.86008 4.86015C11.3402 -1.62005 21.8318 -1.62005 28.3119 4.86015C34.792 11.3403 34.792 21.8321 28.3119 28.3123Z" fill="white"/>
<path d="M29.8162 8.0231C30.1248 9.06456 30.3177 10.1446 30.3177 11.2632C30.3177 14.9276 28.5048 18.1291 25.7662 20.1735C21.0218 23.6836 14.0788 23.6836 4.51294 26.6922C7.40585 30.1638 11.7259 32.3624 16.586 32.3624C25.3033 32.3624 32.3234 25.3036 32.3234 16.6248C32.3234 13.4233 31.3977 10.4917 29.8162 8.0231Z" fill="#005992"/>
<path d="M26.0362 3.97295C23.4133 2.00575 20.1347 0.809998 16.586 0.809998C7.86875 0.809998 0.848633 7.86879 0.848633 16.5862C0.848633 20.0963 2.0058 23.3364 3.9344 25.9208C14.5031 22.835 22.8733 14.5418 26.0362 3.97295Z" fill="#ED1A38"/>
</svg>
