<svg width="193" height="193" viewBox="0 0 193 193" fill="none" xmlns="http://www.w3.org/2000/svg">
<g filter="url(#filter0_d_309_1487)">
<path d="M131 85.5186C131 106.728 113.72 124 92.5 124C71.2804 124 54 106.728 54 85.5186C54 64.2721 71.2804 47 92.5 47C113.72 47 131 64.2721 131 85.5186Z" fill="white"/>
<path d="M107.9 85.5188C107.9 86.4918 107.594 87.4686 106.981 88.2508C106.866 88.4042 106.33 89.0367 105.909 89.4483L105.68 89.6729C102.464 93.0822 94.4633 98.2093 90.4055 99.8522C90.4055 99.8896 87.9938 100.866 86.8453 100.9H86.6922C84.9313 100.9 83.2852 99.9308 82.443 98.359C81.9836 97.4945 81.5625 94.9871 81.5242 94.9534C81.1797 92.7042 80.95 89.2612 80.95 85.4814C80.95 81.5182 81.1797 77.9217 81.6008 75.7137C81.6008 75.6763 82.0219 73.6554 82.2899 72.9818C82.711 72.0125 83.4766 71.1854 84.4336 70.6615C85.1992 70.291 86.0032 70.1001 86.8453 70.1001C87.7258 70.1413 89.3719 70.6989 90.0227 70.9609C94.3102 72.6075 102.502 77.9966 105.641 81.2899C106.177 81.8138 106.752 82.4538 106.905 82.5997C107.556 83.4231 107.9 84.4335 107.9 85.5188Z" fill="#707171"/>
</g>
<defs>
<filter id="filter0_d_309_1487" x="0" y="0" width="193" height="193" filterUnits="userSpaceOnUse" color-interpolation-filters="sRGB">
<feFlood flood-opacity="0" result="BackgroundImageFix"/>
<feColorMatrix in="SourceAlpha" type="matrix" values="0 0 0 0 0 0 0 0 0 0 0 0 0 0 0 0 0 0 127 0" result="hardAlpha"/>
<feOffset dx="4" dy="11"/>
<feGaussianBlur stdDeviation="29"/>
<feColorMatrix type="matrix" values="0 0 0 0 0 0 0 0 0 0 0 0 0 0 0 0 0 0 0.07 0"/>
<feBlend mode="normal" in2="BackgroundImageFix" result="effect1_dropShadow_309_1487"/>
<feBlend mode="normal" in="SourceGraphic" in2="effect1_dropShadow_309_1487" result="shape"/>
</filter>
</defs>
</svg>
