<svg width="44" height="44" viewBox="0 0 44 44" fill="none" xmlns="http://www.w3.org/2000/svg">
<g clip-path="url(#clip0_3129_4425)">
<path d="M0 34.728L14.6666 43.1959L44 26.2602L43.9999 9.27195L29.3332 0.804199L0 17.7925V34.728Z" fill="#3383B9"/>
<path d="M0 17.7925L14.6666 26.2602L43.9999 9.27197L44 26.2602L14.6666 43.1959L0 34.728V17.7925Z" fill="#0064A7"/>
<path d="M14.6666 43.1959V26.2602L43.9999 9.27197L44 26.2602L14.6666 43.1959Z" fill="#1A4541"/>
<path d="M29.3332 2.74292L3.66663 17.477L14.801 23.8299L40.4675 9.09611L29.3332 2.74292ZM14.799 22.3929L6.17744 17.4736L29.3352 4.17999L37.9567 9.0993L14.799 22.3929Z" fill="white"/>
<path d="M22.4232 15.6614C25.08 15.6614 27.2338 14.4385 27.2338 12.9298C27.2338 11.4212 25.08 10.1982 22.4232 10.1982C19.7663 10.1982 17.6125 11.4212 17.6125 12.9298C17.6125 14.4385 19.7663 15.6614 22.4232 15.6614Z" fill="white"/>
<path d="M29.8676 10.0648C31.0158 10.0648 31.9466 9.53637 31.9466 8.88447C31.9466 8.23257 31.0158 7.7041 29.8676 7.7041C28.7194 7.7041 27.7886 8.23257 27.7886 8.88447C27.7886 9.53637 28.7194 10.0648 29.8676 10.0648Z" fill="#5EE1EB"/>
<path d="M14.6665 18.7422C15.8148 18.7422 16.7456 18.2137 16.7456 17.5617C16.7456 16.9097 15.8148 16.3811 14.6665 16.3811C13.5183 16.3811 12.5875 16.9097 12.5875 17.5617C12.5875 18.2137 13.5183 18.7422 14.6665 18.7422Z" fill="#5EE1EB"/>
<path d="M0 19.969V20.3831L14.6656 29.0683L14.6666 28.6546L0 19.969Z" fill="#3383B9"/>
<path d="M0 22.2432V22.6574L14.6656 31.3425L14.6666 30.9289L0 22.2432Z" fill="#3383B9"/>
<path d="M0 24.5173V24.9315L14.6656 33.6169L14.6666 33.2031L0 24.5173Z" fill="#3383B9"/>
<path d="M0 26.7915V27.2057L14.6656 35.891L14.6666 35.4774L0 26.7915Z" fill="#3383B9"/>
<path d="M0 29.0659V29.4801L14.6656 38.1654L14.6666 37.7516L0 29.0659Z" fill="#3383B9"/>
<path d="M0 31.3401V31.7543L14.6656 40.4394L14.6666 40.0258L0 31.3401Z" fill="#3383B9"/>
<path d="M43.9999 11.6375L14.6676 28.6551L14.6666 29.0677L43.9999 12.0492V11.6375Z" fill="#0064A7"/>
<path d="M43.9999 13.9116L14.6676 30.9294L14.6666 31.3419L43.9999 14.3234V13.9116Z" fill="#0064A7"/>
<path d="M43.9999 16.1858L14.6676 33.2037L14.6666 33.6163L43.9999 16.5976V16.1858Z" fill="#0064A7"/>
<path d="M44 18.46L14.6676 35.4779L14.6666 35.8904L44 18.8718V18.46Z" fill="#0064A7"/>
<path d="M14.6676 37.7521L14.6666 38.1646L44 21.1462V20.7341L14.6676 37.7521Z" fill="#0064A7"/>
<path d="M14.6676 40.0264L14.6666 40.4388L44 23.4203V23.0083L14.6676 40.0264Z" fill="#0064A7"/>
</g>
<defs>
<clipPath id="clip0_3129_4425">
<rect width="44" height="44" fill="white"/>
</clipPath>
</defs>
</svg>
