<svg width="21" height="22" viewBox="0 0 21 22" fill="none" xmlns="http://www.w3.org/2000/svg">
<path d="M18.375 10.1251C18.1429 10.1251 17.9204 10.2172 17.7563 10.3813C17.5922 10.5454 17.5 10.768 17.5 11.0001C17.5104 12.639 16.949 14.2302 15.9125 15.4997C14.8759 16.7692 13.4291 17.6375 11.8212 17.9551C10.2133 18.2727 8.54506 18.0196 7.10369 17.2395C5.66232 16.4594 4.53811 15.2011 3.92466 13.6813C3.31121 12.1615 3.24694 10.4753 3.74292 8.91325C4.23889 7.35117 5.26406 6.01093 6.64187 5.12337C8.01967 4.23581 9.66385 3.85648 11.2912 4.05073C12.9186 4.24498 14.4273 5.00064 15.5575 6.18756H13.4575C13.2254 6.18756 13.0029 6.27975 12.8388 6.44384C12.6747 6.60794 12.5825 6.8305 12.5825 7.06256C12.5825 7.29463 12.6747 7.51718 12.8388 7.68128C13.0029 7.84537 13.2254 7.93756 13.4575 7.93756H17.4213C17.6533 7.93756 17.8759 7.84537 18.04 7.68128C18.2041 7.51718 18.2963 7.29463 18.2963 7.06256V3.12506C18.2963 2.893 18.2041 2.67044 18.04 2.50634C17.8759 2.34225 17.6533 2.25006 17.4213 2.25006C17.1892 2.25006 16.9666 2.34225 16.8025 2.50634C16.6384 2.67044 16.5463 2.893 16.5463 3.12506V4.67381C15.0891 3.28086 13.1957 2.43377 11.186 2.27572C9.17638 2.11768 7.1738 2.65837 5.51681 3.80641C3.85981 4.95445 2.65004 6.63942 2.09198 8.57648C1.53392 10.5135 1.66181 12.5839 2.45403 14.4375C3.24626 16.2912 4.65422 17.8144 6.43991 18.7498C8.22561 19.6852 10.2795 19.9753 12.2544 19.5711C14.2293 19.1669 16.0041 18.0932 17.2787 16.5315C18.5534 14.9698 19.2497 13.0159 19.25 11.0001C19.25 10.768 19.1578 10.5454 18.9937 10.3813C18.8296 10.2172 18.6071 10.1251 18.375 10.1251Z" fill="#A0A0A0"/>
</svg>
