<svg width="67" height="67" viewBox="0 0 67 67" fill="none" xmlns="http://www.w3.org/2000/svg">
<path d="M33.5 66.3125C51.6218 66.3125 66.3125 51.6218 66.3125 33.5C66.3125 15.3782 51.6218 0.6875 33.5 0.6875C15.3782 0.6875 0.6875 15.3782 0.6875 33.5C0.6875 51.6218 15.3782 66.3125 33.5 66.3125Z" fill="#0065E5"/>
<path d="M18.9512 8.88165V49.3113H33.7206L35.0024 30.6964L33.7206 8.88165H18.9512Z" fill="white"/>
<path d="M48.0485 17.9692L42.4215 14.4862L38.961 8.88165H33.5V49.3113H48.0485V17.9692Z" fill="#E9EDF5"/>
<path d="M38.9609 17.9692H48.0485L38.9609 8.88165V17.9692Z" fill="#CDD2E1"/>
<path d="M22.4043 17.0179H32.5243V20.8631H22.4043V17.0179Z" fill="#BEC3D2"/>
<path d="M22.4043 22.7148V26.56H33.7211L35.0029 24.4574L33.7211 22.7148H22.4043Z" fill="#BEC3D2"/>
<path d="M33.5 22.7148H44.5957V26.56H33.5V22.7148Z" fill="#9196AA"/>
<path d="M33.5 28.4119H44.5957V32.2571H33.5V28.4119Z" fill="#9196AA"/>
<path d="M22.4043 34.1088H34.3324V37.954H22.4043V34.1088Z" fill="#BEC3D2"/>
<path d="M29.9886 31.1508L24.7519 26.9721H15.0967V52.1656H33.7207L35.0025 42.4813L33.7207 31.1508H29.9886Z" fill="#FFCE00"/>
<path d="M33.5 31.1508H51.9031V52.1656H33.5V31.1508Z" fill="#FDBA12"/>
</svg>
