<svg width="46" height="46" viewBox="0 0 46 46" fill="none" xmlns="http://www.w3.org/2000/svg">
<path d="M29.4607 20.9795L18.6124 10.1503C18.4342 9.97067 18.2222 9.82809 17.9887 9.73078C17.7551 9.63347 17.5046 9.58337 17.2516 9.58337C16.9985 9.58337 16.748 9.63347 16.5145 9.73078C16.2809 9.82809 16.0689 9.97067 15.8907 10.1503C15.5337 10.5094 15.3334 10.9952 15.3334 11.5016C15.3334 12.0079 15.5337 12.4937 15.8907 12.8528L25.3782 22.4362L15.8907 31.9237C15.5337 32.2828 15.3334 32.7685 15.3334 33.2749C15.3334 33.7813 15.5337 34.267 15.8907 34.6262C16.0682 34.8073 16.2799 34.9513 16.5135 35.05C16.7471 35.1487 16.998 35.2001 17.2516 35.2012C17.5051 35.2001 17.756 35.1487 17.9896 35.05C18.2232 34.9513 18.4349 34.8073 18.6124 34.6262L29.4607 23.797C29.6553 23.6175 29.8105 23.3997 29.9167 23.1572C30.0229 22.9148 30.0778 22.6529 30.0778 22.3882C30.0778 22.1235 30.0229 21.8617 29.9167 21.6193C29.8105 21.3768 29.6553 21.159 29.4607 20.9795Z" fill="white"/>
</svg>
