<svg width="71" height="71" viewBox="0 0 71 71" fill="none" xmlns="http://www.w3.org/2000/svg">
<path d="M35.5 68.3125C53.6218 68.3125 68.3125 53.6218 68.3125 35.5C68.3125 17.3782 53.6218 2.6875 35.5 2.6875C17.3782 2.6875 2.6875 17.3782 2.6875 35.5C2.6875 53.6218 17.3782 68.3125 35.5 68.3125Z" fill="#0065E5"/>
<path d="M35.4998 6.42979L30.4865 16.588L19.2764 18.2169L27.3881 26.1238L25.4732 37.2888L35.4998 32.0174L35.7003 31.8804L37.1365 22.1385L35.8259 7.12873L35.4998 6.42979Z" fill="#FFCE00"/>
<path d="M35.5 6.42979L40.5134 16.588L51.7235 18.2169L43.6117 26.1238L45.5267 37.2888L35.5 32.0174V6.42979Z" fill="#FDBA12"/>
<path d="M49.4199 36.405L46.4698 42.3828L39.873 43.3413L44.6465 47.9943L43.5196 54.5643L49.4199 51.4624L49.684 51.6012L50.9657 44.9656L49.684 36.9402L49.4199 36.405Z" fill="#FFCE00"/>
<path d="M49.4199 36.405L52.3701 42.3828L58.9668 43.3413L54.1934 47.9943L55.3201 54.5643L49.4199 51.4624V36.405Z" fill="#FDBA12"/>
<path d="M21.58 36.405L18.6298 42.3828L12.0332 43.3413L16.8065 47.9943L15.6797 54.5643L21.58 51.4624L21.8764 51.6182L23.1582 45.0742L21.8764 37.0058L21.58 36.405Z" fill="#FFCE00"/>
<path d="M21.5801 36.405L24.5303 42.3828L31.127 43.3413L26.3535 47.9943L27.4804 54.5643L21.5801 51.4624V36.405Z" fill="#FDBA12"/>
<path d="M33.4999 24.7576L31.5813 22.8389L28.8623 25.5578L33.4999 30.1955L35.6714 28.0241L36.61 25.0554L35.6714 22.5862L33.4999 24.7576Z" fill="white"/>
<path d="M35.5 28.1958V22.7578L40.3457 17.9121L43.0647 20.6311L35.5 28.1958Z" fill="#E9EDF5"/>
</svg>
