<svg width="71" height="71" viewBox="0 0 71 71" fill="none" xmlns="http://www.w3.org/2000/svg">
<path d="M35.5 68.3125C53.6218 68.3125 68.3125 53.6218 68.3125 35.5C68.3125 17.3782 53.6218 2.6875 35.5 2.6875C17.3782 2.6875 2.6875 17.3782 2.6875 35.5C2.6875 53.6218 17.3782 68.3125 35.5 68.3125Z" fill="#0065E5"/>
<path d="M13.2197 32.3415L28.2079 17.9061C28.2079 17.9061 31.6694 14.5916 35.4995 17.9061V32.8209L31.8538 40.1126L13.2197 32.3415Z" fill="#386895"/>
<path d="M57.7248 32.2883L42.7917 17.9061C42.7917 17.9061 39.3301 14.5916 35.5 17.9061V32.8209L39.1458 40.1126L57.7248 32.2883Z" fill="#273B7A"/>
<path d="M42.7914 36.4655H28.208V43.7572H42.7914V36.4655Z" fill="#295A82"/>
<path d="M42.7923 36.4656H35.4277V43.7573H42.7923V36.4656Z" fill="#273B7A"/>
<path d="M20.9169 51.0489C26.9575 51.0489 31.8544 46.1521 31.8544 40.1115C31.8544 34.0709 26.9575 29.174 20.9169 29.174C14.8764 29.174 9.97949 34.0709 9.97949 40.1115C9.97949 46.1521 14.8764 51.0489 20.9169 51.0489Z" fill="#273B7A"/>
<path d="M20.9167 47.4031C24.9438 47.4031 28.2084 44.1385 28.2084 40.1114C28.2084 36.0844 24.9438 32.8198 20.9167 32.8198C16.8896 32.8198 13.625 36.0844 13.625 40.1114C13.625 44.1385 16.8896 47.4031 20.9167 47.4031Z" fill="#71E2EF"/>
<path d="M50.083 51.0489C56.1236 51.0489 61.0204 46.1521 61.0204 40.1115C61.0204 34.0709 56.1236 29.174 50.083 29.174C44.0424 29.174 39.1455 34.0709 39.1455 40.1115C39.1455 46.1521 44.0424 51.0489 50.083 51.0489Z" fill="#121149"/>
<path d="M50.0837 47.4031C54.1108 47.4031 57.3754 44.1385 57.3754 40.1114C57.3754 36.0844 54.1108 32.8198 50.0837 32.8198C46.0566 32.8198 42.792 36.0844 42.792 40.1114C42.792 44.1385 46.0566 47.4031 50.0837 47.4031Z" fill="#02B2B2"/>
<path d="M35.4996 38.621C34.493 38.621 33.6768 37.8048 33.6768 36.7982V18.2376C33.6768 17.2309 34.493 16.4147 35.4996 16.4147C36.5063 16.4147 37.3225 17.2309 37.3225 18.2376V36.7982C37.3225 37.8048 36.5063 38.621 35.4996 38.621Z" fill="#273B7A"/>
<path d="M35.5003 16.4147C35.4756 16.4147 35.4512 16.4174 35.4268 16.4184V38.6173C35.4512 38.6182 35.4756 38.621 35.5003 38.621C36.507 38.621 37.3232 37.8048 37.3232 36.7982V18.2376C37.3232 17.2309 36.507 16.4147 35.5003 16.4147Z" fill="#121149"/>
<path d="M35.4998 42.321C37.7574 42.321 39.5875 40.4909 39.5875 38.2333C39.5875 35.9757 37.7574 34.1456 35.4998 34.1456C33.2422 34.1456 31.4121 35.9757 31.4121 38.2333C31.4121 40.4909 33.2422 42.321 35.4998 42.321Z" fill="#181854"/>
<path d="M35.5003 34.1466C35.4756 34.1466 35.4515 34.1499 35.4268 34.1503V42.3183C35.4515 42.3187 35.4756 42.322 35.5003 42.322C37.7579 42.322 39.5881 40.4919 39.5881 38.2343C39.5881 35.9768 37.7579 34.1466 35.5003 34.1466Z" fill="#0B0B38"/>
</svg>
