<svg width="107" height="106" viewBox="0 0 107 106" fill="none" xmlns="http://www.w3.org/2000/svg">
<g clip-path="url(#clip0_311_414)">
<path d="M77.9355 47.0159V48.2157C77.9355 49.6858 78.1726 51.1462 78.6373 52.5408L81.3548 60.6932H86.4838V41.8867H83.0645C80.2319 41.8869 77.9355 44.1831 77.9355 47.0159Z" fill="#5A4146"/>
<path d="M101.345 50.5678L98.4517 60.6937L84.7742 48.7261C82.8856 48.7261 81.3548 47.1951 81.3548 45.3067C81.3548 42.4741 83.6512 40.1777 86.4838 40.1777H98.4515C100.34 40.1777 101.871 41.7087 101.871 43.5971V46.8106C101.871 48.0812 101.694 49.3457 101.345 50.5678Z" fill="#694B4B"/>
<path d="M95.0311 65.8242H84.7731V73.391H95.0311V65.8242Z" fill="#E6AF78"/>
<path d="M84.7742 68.9627C86.3598 69.607 88.0889 69.9697 89.9031 69.9697C91.7174 69.9697 93.4465 69.607 95.0321 68.9627V65.8223H84.7742V68.9627Z" fill="#D29B6E"/>
<path d="M103.28 72.3264L95.0317 69.9699L89.9032 73.3733L84.7742 69.9697L76.5265 72.3264C74.3245 72.9555 72.8065 74.9681 72.8065 77.2581V89.7578C72.8065 90.7021 73.5719 91.4674 74.5162 91.4674H105.29C106.235 91.4674 107 90.7021 107 89.7578V77.2581C107 74.9679 105.482 72.9555 103.28 72.3264Z" fill="#D5DCED"/>
<path d="M91.6128 91.4669H88.1935L89.0483 73.3887H90.758L91.6128 91.4669Z" fill="#AFB9D2"/>
<path d="M89.9032 67.5316C84.2377 67.5316 79.6452 62.9388 79.6452 57.2736V55.2706C79.6452 54.3638 80.0054 53.4941 80.6466 52.8527L83.7469 49.7524C84.4034 49.0959 85.3011 48.7185 86.229 48.7477C91.6942 48.9201 96.5317 50.0909 99.1761 52.6736C99.8235 53.3059 100.161 54.1903 100.161 55.095V57.2736C100.161 62.939 95.5686 67.5316 89.9032 67.5316Z" fill="#F0C087"/>
<path d="M84.7742 55.6948C84.7742 53.7226 86.4304 52.155 88.3987 52.2805C91.8501 52.5007 96.9716 53.0775 100.114 54.5888C100.011 53.8676 99.7013 53.1866 99.1761 52.6736C96.5317 50.0909 91.6942 48.9201 86.229 48.7477L86.2288 48.7479V48.7477C85.3011 48.7185 84.4032 49.0961 83.7469 49.7524L80.6468 52.8525C80.0054 53.4937 79.6452 54.3634 79.6452 55.2704V57.2734C79.6452 61.9515 82.7798 65.8903 87.061 67.1238C85.636 65.3657 84.7744 63.1339 84.7744 60.6928L84.7742 55.6948Z" fill="#E6AF78"/>
<path d="M100.161 82.3528C100.161 80.9924 100.702 79.6879 101.664 78.7261L106.064 74.3252C106.653 75.1659 107 76.1781 107 77.2586V89.7584C107 90.7026 106.235 91.468 105.29 91.468H100.161V82.3528Z" fill="#C7CFE2"/>
<path d="M90.758 76.808H89.0483C88.5763 76.808 88.1935 76.4252 88.1935 75.9532V73.3887H91.6128V75.9532C91.6128 76.4252 91.2302 76.808 90.758 76.808Z" fill="#959CB5"/>
<path d="M89.9032 73.3737L87.0053 75.5871C86.5062 75.9684 85.7845 75.8156 85.4828 75.2645L82.8833 70.5173L83.9297 68.9213C84.1618 68.5673 84.6564 68.507 84.9667 68.7948L89.9032 73.3737Z" fill="#C7CFE2"/>
<path d="M89.9032 73.3735L92.801 75.5871C93.3001 75.9684 94.0218 75.8156 94.3235 75.2645L96.923 70.5173L95.8766 68.9213C95.6445 68.5673 95.1499 68.507 94.8396 68.7948L89.9032 73.3735Z" fill="#C7CFE2"/>
<path d="M31.6038 66.8183C30.1428 62.9473 28.984 56.2927 28.7337 52.828C28.2575 46.2349 23.289 40.8604 16.5725 40.8604C9.85597 40.8604 4.88743 46.2351 4.41125 52.828C4.16095 56.2925 3.0022 62.9473 1.54118 66.8183C1.21925 67.6717 1.59087 68.6127 2.43121 68.9936C3.99678 69.7031 7.33474 71.0931 11.3605 71.6345H21.7843C25.7912 71.0919 29.1525 69.701 30.7135 68.9936C31.5541 68.6127 31.9257 67.6717 31.6038 66.8183Z" fill="#5A4146"/>
<path d="M30.7137 68.9936C31.5539 68.6127 31.9257 67.6717 31.6036 66.8183C30.1428 62.9473 28.9838 56.2927 28.7337 52.828C28.2577 46.2349 23.289 40.8604 16.5727 40.8604C16.5557 40.8604 16.5389 40.8604 16.522 40.8606C11.3683 40.8815 9.54708 47.91 13.9836 50.5324C14.25 50.69 14.4208 50.7658 14.4208 50.7658L18.3066 71.6345H21.7845C25.7914 71.0915 29.1527 69.7008 30.7137 68.9936Z" fill="#694B4B"/>
<path d="M28.9389 75.0673L23.4062 72.3012C22.2476 71.7219 21.5158 70.5377 21.516 69.2425L21.5164 64.1133H11.258V69.2427C11.258 70.5379 10.5263 71.7217 9.36779 72.301L3.83509 75.0673C2.09747 75.936 1 77.7119 1 79.6545V89.758C1 90.7021 1.76539 91.4677 2.70966 91.4677H30.0645C31.0088 91.4677 31.7742 90.7021 31.7742 89.758V79.6547C31.7742 77.7119 30.6765 75.936 28.9389 75.0673Z" fill="#E6AF78"/>
<path d="M16.3872 70.9519C18.2281 70.9519 19.9914 70.5725 21.6079 69.8969C21.5655 69.6814 21.516 69.4671 21.516 69.2425L21.5164 64.1133H11.258V69.2427C11.258 69.4686 11.2085 69.6839 11.1656 69.9002C12.7832 70.5722 14.5456 70.9519 16.3872 70.9519Z" fill="#D29B6E"/>
<path d="M28.9389 75.0666L24.9974 73.0959C23.1697 75.9182 19.9999 77.7899 16.3872 77.7899C12.7745 77.7899 9.60443 75.9182 7.77675 73.0957L3.83529 75.0666C2.09768 75.9353 1 77.7113 1 79.6538V89.7574C1 90.7016 1.76539 91.467 2.70966 91.467H30.0645C31.0088 91.467 31.7742 90.7016 31.7742 89.7574V79.654C31.7742 77.7113 30.6765 75.9353 28.9389 75.0666Z" fill="#D5DCED"/>
<path d="M16.3872 67.5321C11.1717 67.5321 6.8654 63.6399 6.21429 58.6018C6.11988 57.8718 6.4708 57.1561 7.12792 56.8247C7.91505 56.4276 9.0589 55.7581 10.1541 54.7809C11.3737 53.6927 12.0892 52.5451 12.4933 51.7027C12.8414 50.9773 13.6413 50.567 14.421 50.7659C20.4406 52.3013 24.5388 55.433 26.0257 56.7116C26.4249 57.0549 26.6549 57.5611 26.6139 58.0861C26.1996 63.3716 21.7793 67.5321 16.3872 67.5321Z" fill="#F0C087"/>
<path d="M26.0255 56.7116C24.5388 55.433 20.4404 52.3013 14.4208 50.7659C13.6411 50.567 12.8412 50.9773 12.4931 51.7027C12.1871 52.3408 11.6814 53.1536 10.9309 53.9834C10.9307 53.9855 10.93 53.9871 10.9298 53.9892C10.6969 54.2531 10.4489 54.5177 10.1541 54.7811C9.0589 55.7585 7.91505 56.4278 7.12792 56.8249C6.4708 57.1563 6.12009 57.8723 6.21429 58.6023C6.79915 63.1269 10.3398 66.7284 14.832 67.4154C12.785 66.0229 11.2582 64.1078 11.2582 60.6939V58.2559C11.6466 57.9691 12.0377 57.6832 12.4306 57.3325C13.3809 56.4845 14.2105 55.5038 14.8757 54.448C19.4806 55.885 22.6027 58.2785 23.7863 59.2962C24.1103 59.5803 24.9144 60.3214 25.8551 61.204C26.2599 60.2299 26.5276 59.1848 26.6135 58.0865C26.6547 57.5613 26.4247 57.0551 26.0255 56.7116Z" fill="#E6AF78"/>
<path d="M2.0422 76.5723C1.38363 77.4464 1 78.5186 1 79.6541V89.7577C1 90.7019 1.76539 91.4673 2.70966 91.4673H7.83866V82.8528C7.83866 81.8141 7.36642 80.8315 6.55527 80.1827L2.0422 76.5723Z" fill="#C7CFE2"/>
<path d="M78.5628 72.7331L64.258 67.5312L54 70.9508L43.742 67.5315L29.4372 72.7333C26.7346 73.7161 24.9355 76.2845 24.9355 79.1602V89.7573C24.9355 90.7014 25.7009 91.467 26.6452 91.467H81.3548C82.2991 91.467 83.0645 90.7014 83.0645 89.7573V79.1602C83.0645 76.2843 81.2656 73.7159 78.5628 72.7331Z" fill="#FF507D"/>
<path d="M52.209 74.3711L50.5807 91.4675H57.4193L55.791 74.3711H52.209Z" fill="#707487"/>
<path d="M55.795 76.7195H52.205C51.544 76.7195 51.0082 76.1837 51.0082 75.5226V70.9512H56.9916V75.5226C56.9918 76.1835 56.456 76.7195 55.795 76.7195Z" fill="#5B5D6E"/>
<path d="M81.2242 74.502C82.3786 75.741 83.0645 77.3913 83.0645 79.1614V89.7585C83.0645 90.7028 82.2991 91.4682 81.3548 91.4682H72.8065V85.7524C72.8065 83.9386 73.527 82.1992 74.8095 80.9168L81.2242 74.502Z" fill="#D23C69"/>
<path d="M72.8065 32.274V17.9516C72.8065 16.063 71.2755 14.5322 69.3872 14.5322H48.871C41.3173 14.5322 35.1935 20.6558 35.1935 28.2098V32.274C35.1935 34.1116 35.4898 35.9372 36.0709 37.6804L36.64 39.3878C36.8143 39.9107 36.9032 40.4583 36.9032 41.0097V41.8871H71.0966V41.0097C71.0966 40.4583 71.1855 39.9107 71.3598 39.3878L71.9289 37.6804C72.5103 35.937 72.8065 34.1114 72.8065 32.274Z" fill="#5A4146"/>
<path d="M43.742 21.4777C43.742 25.3136 46.8516 28.4232 50.6875 28.4232H51.6492L52.1133 41.8869H71.0966V41.0095C71.0966 40.4581 71.1855 39.9105 71.3598 39.3876L71.9289 37.6802C72.51 35.937 72.8063 34.1114 72.8063 32.2738V17.9516C72.8063 16.063 71.2753 14.5322 69.387 14.5322H50.6875C46.8516 14.5322 43.742 17.6418 43.742 21.4777Z" fill="#694B4B"/>
<path d="M64.2584 55.5645H43.7416V70.951H64.2584V55.5645Z" fill="#E6AF78"/>
<path d="M43.742 61.3456C46.7622 63.0952 50.2587 64.1128 54 64.1128C57.7413 64.1128 61.238 63.0952 64.258 61.3456V55.5645H43.7418L43.742 61.3456Z" fill="#D29B6E"/>
<path d="M54 70.9515L48.5472 76.4043C47.8143 77.1372 46.603 77.0546 45.9765 76.229L40.3227 68.7792L41.8015 65.6627C42.2379 64.7431 43.3762 64.406 44.2428 64.9402L54 70.9515Z" fill="#D23C69"/>
<path d="M54 70.9515L59.4528 76.4043C60.1857 77.1372 61.397 77.0546 62.0235 76.229L67.6773 68.7792L66.1985 65.6627C65.7621 64.7431 64.6238 64.406 63.7572 64.9402L54 70.9515Z" fill="#D23C69"/>
<path d="M54 60.6928C44.5577 60.6928 36.9032 53.0383 36.9032 43.596V41.593C36.9032 40.6862 37.2634 39.8164 37.9046 39.175L39.3209 37.7587C39.962 37.1176 40.3223 36.2478 40.3223 35.3408V31.2424C40.3223 30.4507 40.8539 29.763 41.6243 29.581C45.6678 28.626 58.2506 26.3637 66.8136 32.6616C67.3697 33.0705 67.6771 33.7423 67.6771 34.4326V35.3408C67.6771 36.2476 68.0373 37.1174 68.6785 37.7587L70.0948 39.175C70.736 39.8162 71.0962 40.686 71.0962 41.593V43.596C71.0969 53.0383 63.4423 60.6928 54 60.6928Z" fill="#F0C087"/>
<path d="M66.8138 32.6627C60.7912 28.2332 52.7914 28.0415 47.1613 28.6479C44.7865 28.9036 42.8242 29.2988 41.6247 29.582C40.8543 29.764 40.3227 30.4518 40.3227 31.2435V35.3417C40.3227 36.2487 39.9625 37.1184 39.3211 37.7598L37.9048 39.1761C37.2634 39.8175 36.9032 40.6872 36.9032 41.5942V43.597C36.9032 52.3387 43.4681 59.5353 51.934 60.557C48.984 57.4849 47.1611 53.3217 47.1611 48.726V36.2294C47.1611 34.4968 48.4495 33.0488 50.1685 32.8333C54.2714 32.3188 61.7862 32.0095 67.6771 35.3421V34.4336C67.6775 33.7434 67.3695 33.0714 66.8138 32.6627Z" fill="#E6AF78"/>
<path d="M26.7758 74.502C25.6214 75.741 24.9355 77.3913 24.9355 79.1614V89.7585C24.9355 90.7028 25.7009 91.4682 26.6452 91.4682H35.1935V85.7524C35.1935 83.9386 34.473 82.1992 33.1905 80.9168L26.7758 74.502Z" fill="#D23C69"/>
</g>
<defs>
<clipPath id="clip0_311_414">
<rect width="105.703" height="106" fill="white" transform="translate(0.649857)"/>
</clipPath>
</defs>
</svg>
