<svg width="21" height="22" viewBox="0 0 21 22" fill="none" xmlns="http://www.w3.org/2000/svg">
<path d="M8.75 16.25C8.98206 16.25 9.20462 16.1578 9.36872 15.9937C9.53281 15.8296 9.625 15.6071 9.625 15.375V10.125C9.625 9.89294 9.53281 9.67038 9.36872 9.50628C9.20462 9.34219 8.98206 9.25 8.75 9.25C8.51794 9.25 8.29538 9.34219 8.13128 9.50628C7.96719 9.67038 7.875 9.89294 7.875 10.125V15.375C7.875 15.6071 7.96719 15.8296 8.13128 15.9937C8.29538 16.1578 8.51794 16.25 8.75 16.25ZM17.5 5.75H14V4.875C14 4.17881 13.7234 3.51113 13.2312 3.01884C12.7389 2.52656 12.0712 2.25 11.375 2.25H9.625C8.92881 2.25 8.26113 2.52656 7.76884 3.01884C7.27656 3.51113 7 4.17881 7 4.875V5.75H3.5C3.26794 5.75 3.04538 5.84219 2.88128 6.00628C2.71719 6.17038 2.625 6.39294 2.625 6.625C2.625 6.85706 2.71719 7.07962 2.88128 7.24372C3.04538 7.40781 3.26794 7.5 3.5 7.5H4.375V17.125C4.375 17.8212 4.65156 18.4889 5.14384 18.9812C5.63613 19.4734 6.30381 19.75 7 19.75H14C14.6962 19.75 15.3639 19.4734 15.8562 18.9812C16.3484 18.4889 16.625 17.8212 16.625 17.125V7.5H17.5C17.7321 7.5 17.9546 7.40781 18.1187 7.24372C18.2828 7.07962 18.375 6.85706 18.375 6.625C18.375 6.39294 18.2828 6.17038 18.1187 6.00628C17.9546 5.84219 17.7321 5.75 17.5 5.75ZM8.75 4.875C8.75 4.64294 8.84219 4.42038 9.00628 4.25628C9.17038 4.09219 9.39294 4 9.625 4H11.375C11.6071 4 11.8296 4.09219 11.9937 4.25628C12.1578 4.42038 12.25 4.64294 12.25 4.875V5.75H8.75V4.875ZM14.875 17.125C14.875 17.3571 14.7828 17.5796 14.6187 17.7437C14.4546 17.9078 14.2321 18 14 18H7C6.76794 18 6.54538 17.9078 6.38128 17.7437C6.21719 17.5796 6.125 17.3571 6.125 17.125V7.5H14.875V17.125ZM12.25 16.25C12.4821 16.25 12.7046 16.1578 12.8687 15.9937C13.0328 15.8296 13.125 15.6071 13.125 15.375V10.125C13.125 9.89294 13.0328 9.67038 12.8687 9.50628C12.7046 9.34219 12.4821 9.25 12.25 9.25C12.0179 9.25 11.7954 9.34219 11.6313 9.50628C11.4672 9.67038 11.375 9.89294 11.375 10.125V15.375C11.375 15.6071 11.4672 15.8296 11.6313 15.9937C11.7954 16.1578 12.0179 16.25 12.25 16.25Z" fill="#FF5C5C"/>
</svg>
