<svg width="28" height="29" viewBox="0 0 28 29" fill="none" xmlns="http://www.w3.org/2000/svg">
<path d="M25.6673 7.26691C24.7904 7.64736 23.863 7.89885 22.914 8.01358C23.9152 7.41545 24.6655 6.47449 25.0257 5.36524C24.0848 5.92532 23.0549 6.31992 21.9806 6.53191C21.2626 5.75325 20.3064 5.23492 19.2621 5.05824C18.2177 4.88155 17.1443 5.0565 16.2101 5.55563C15.2759 6.05477 14.5337 6.84986 14.1001 7.81622C13.6665 8.78258 13.5658 9.86553 13.814 10.8952C11.9116 10.799 10.0508 10.3037 8.35241 9.44142C6.654 8.57914 5.15597 7.36922 3.95565 5.89024C3.53464 6.62544 3.31342 7.45804 3.31398 8.30524C3.31249 9.09202 3.50557 9.86696 3.87603 10.5611C4.24649 11.2552 4.78284 11.8469 5.43732 12.2836C4.67662 12.2629 3.93218 12.0588 3.26732 11.6886V11.7469C3.27302 12.8493 3.65931 13.9159 4.36085 14.7662C5.06239 15.6166 6.03612 16.1985 7.11732 16.4136C6.70112 16.5402 6.26901 16.607 5.83398 16.6119C5.53286 16.6084 5.23248 16.5811 4.93565 16.5302C5.24355 17.4785 5.83938 18.3072 6.64024 18.9011C7.4411 19.4949 8.40716 19.8244 9.40398 19.8436C7.72072 21.1681 5.64251 21.8909 3.50065 21.8969C3.11068 21.8982 2.72101 21.8748 2.33398 21.8269C4.52082 23.2389 7.06927 23.9884 9.67232 23.9852C11.4686 24.0039 13.2506 23.6644 14.9143 22.9867C16.5779 22.3089 18.0898 21.3064 19.3617 20.0378C20.6336 18.7692 21.6399 17.2599 22.322 15.598C23.004 13.9361 23.348 12.1549 23.334 10.3586C23.334 10.1602 23.334 9.95024 23.334 9.74024C24.2495 9.05752 25.039 8.22057 25.6673 7.26691Z" fill="#0064A7"/>
</svg>
