<svg width="21" height="22" viewBox="0 0 21 22" fill="none" xmlns="http://www.w3.org/2000/svg">
<path d="M7.62125 7.24628L9.625 5.23378V13.625C9.625 13.8571 9.71719 14.0797 9.88128 14.2437C10.0454 14.4078 10.2679 14.5 10.5 14.5C10.7321 14.5 10.9546 14.4078 11.1187 14.2437C11.2828 14.0797 11.375 13.8571 11.375 13.625V5.23378L13.3787 7.24628C13.4601 7.32829 13.5569 7.39339 13.6635 7.43781C13.7701 7.48223 13.8845 7.5051 14 7.5051C14.1155 7.5051 14.2299 7.48223 14.3365 7.43781C14.4431 7.39339 14.5399 7.32829 14.6212 7.24628C14.7033 7.16494 14.7684 7.06816 14.8128 6.96154C14.8572 6.85491 14.8801 6.74054 14.8801 6.62503C14.8801 6.50952 14.8572 6.39515 14.8128 6.28853C14.7684 6.1819 14.7033 6.08512 14.6212 6.00378L11.1213 2.50378C11.038 2.42412 10.9399 2.36168 10.8325 2.32003C10.6195 2.23252 10.3805 2.23252 10.1675 2.32003C10.0601 2.36168 9.96197 2.42412 9.87875 2.50378L6.37875 6.00378C6.29717 6.08537 6.23245 6.18222 6.1883 6.28881C6.14415 6.39541 6.12142 6.50965 6.12142 6.62503C6.12142 6.74041 6.14415 6.85465 6.1883 6.96125C6.23245 7.06784 6.29717 7.1647 6.37875 7.24628C6.46033 7.32787 6.55719 7.39258 6.66378 7.43673C6.77038 7.48089 6.88462 7.50361 7 7.50361C7.11538 7.50361 7.22962 7.48089 7.33622 7.43673C7.44281 7.39258 7.53967 7.32787 7.62125 7.24628ZM18.375 11C18.1429 11 17.9204 11.0922 17.7563 11.2563C17.5922 11.4204 17.5 11.643 17.5 11.875V17.125C17.5 17.3571 17.4078 17.5797 17.2437 17.7437C17.0796 17.9078 16.8571 18 16.625 18H4.375C4.14294 18 3.92038 17.9078 3.75628 17.7437C3.59219 17.5797 3.5 17.3571 3.5 17.125V11.875C3.5 11.643 3.40781 11.4204 3.24372 11.2563C3.07962 11.0922 2.85706 11 2.625 11C2.39294 11 2.17038 11.0922 2.00628 11.2563C1.84219 11.4204 1.75 11.643 1.75 11.875V17.125C1.75 17.8212 2.02656 18.4889 2.51884 18.9812C3.01113 19.4735 3.67881 19.75 4.375 19.75H16.625C17.3212 19.75 17.9889 19.4735 18.4812 18.9812C18.9734 18.4889 19.25 17.8212 19.25 17.125V11.875C19.25 11.643 19.1578 11.4204 18.9937 11.2563C18.8296 11.0922 18.6071 11 18.375 11Z" fill="#0064A7"/>
</svg>
