<svg width="43" height="44" viewBox="0 0 43 44" fill="none" xmlns="http://www.w3.org/2000/svg">
<path fill-rule="evenodd" clip-rule="evenodd" d="M9.97751 21.6207L13.2658 18.9351C12.1011 18.041 10.9364 17.1436 9.76861 16.2495H8.00263C7.35064 16.2495 6.8158 16.7822 6.8158 17.4354V18.6117C6.8158 20.1115 8.49632 21.6398 9.97751 21.6207Z" fill="#FFBC85"/>
<path fill-rule="evenodd" clip-rule="evenodd" d="M42.3195 52.2656C42.7563 52.2371 42.9999 52.0723 42.9999 51.305V42.389C42.9999 37.0939 37.5406 33.1401 32.7711 32.1793L32.7205 32.2173L21.751 31.8052L10.3953 32.1856L10.389 32.1793C5.61954 33.14 0.160156 37.0939 0.160156 42.389V51.305C0.160156 52.0723 0.407056 52.2372 0.840597 52.2656H42.3195Z" fill="#F9F7F7"/>
<path fill-rule="evenodd" clip-rule="evenodd" d="M26.549 47.8872L23.6183 38.1056L21.4852 36.8025L19.3488 38.1056L16.4182 47.8872C16.3929 47.9727 16.3707 47.976 16.4119 48.0521L18.6337 52.2659H21.4853H24.3368L26.5554 48.0521C26.5965 47.976 26.5743 47.9727 26.549 47.8872Z" fill="#7BACDF"/>
<path fill-rule="evenodd" clip-rule="evenodd" d="M23.6182 38.1055L24.5297 34.5259L24.1088 33.0388L21.5801 31.8086L19.2222 33.0166L18.4753 34.6686L19.3488 38.1055H21.4852H23.6182Z" fill="#3987D0"/>
<path fill-rule="evenodd" clip-rule="evenodd" d="M18.4753 34.6682L21.58 31.8083C21.5484 31.8083 21.5167 31.8083 21.4851 31.8083C19.9312 29.5666 17.339 28.1461 14.6616 28.8817C13.1139 30.058 10.9523 31.7703 10.3889 32.1793L10.3952 32.1856L15.6363 36.0887C16.7503 36.7831 15.9717 36.8782 17.6807 35.4007L18.4753 34.6682Z" fill="#CECECE"/>
<path fill-rule="evenodd" clip-rule="evenodd" d="M27.5238 36.089L32.7206 32.2175L32.7711 32.1795C32.1952 31.761 29.9481 29.9823 28.3973 28.8059C25.1406 28.5491 22.7859 30.2708 21.5801 31.8085L24.5297 34.5259L25.4792 35.401C27.1883 36.8785 26.4097 36.7834 27.5238 36.089Z" fill="#CECECE"/>
<path fill-rule="evenodd" clip-rule="evenodd" d="M23.6181 38.1055L24.5296 34.5259L21.58 31.8086L20.5134 32.7915L22.3934 34.5259L21.4851 38.1055H23.6181Z" fill="#0067B4"/>
<path fill-rule="evenodd" clip-rule="evenodd" d="M26.5489 47.8873L23.6183 38.1057H21.4851L24.4126 47.8873C24.4411 47.9728 24.4601 47.9761 24.4221 48.0522L22.2003 52.266H24.3366L26.5552 48.0522C26.5964 47.9761 26.5742 47.9728 26.5489 47.8873Z" fill="#3987D0"/>
<path fill-rule="evenodd" clip-rule="evenodd" d="M18.6556 34.5034L20.5135 32.7913L21.58 31.8084C21.5484 31.8084 21.5167 31.8084 21.4851 31.8084C20.5483 31.8084 19.6147 31.6117 18.5513 31.2123C17.1556 30.6923 15.8358 29.8775 14.6617 28.8818C14.0952 29.3131 13.4464 29.8172 12.8229 30.3023C14.3611 32.1191 16.3581 33.6443 18.5323 34.4591C18.5733 34.4717 18.6145 34.4876 18.6556 34.5034Z" fill="#B5ADB6"/>
<path fill-rule="evenodd" clip-rule="evenodd" d="M24.4411 34.4432C26.6439 33.6094 28.6599 32.0493 30.2013 30.1944C29.5841 29.7125 28.948 29.2211 28.3973 28.8057C27.201 29.8362 25.8496 30.6764 24.419 31.2122C23.3872 31.5959 22.4821 31.7956 21.5801 31.8083L24.4411 34.4432Z" fill="#B5ADB6"/>
<path fill-rule="evenodd" clip-rule="evenodd" d="M41.6612 52.2655H41.6833C41.677 52.2655 41.6707 52.2655 41.6612 52.2655ZM30.3689 33.9674C34.8567 35.2547 39.5534 39.0121 39.5534 43.9235V52.2655H41.6612H41.6833H42.3194C42.7562 52.237 42.9999 52.0721 42.9999 51.3048V42.3889C42.9999 37.0937 37.5405 33.14 32.771 32.1792L32.7204 32.2172L30.3689 33.9674Z" fill="#E2E2E2"/>
<path fill-rule="evenodd" clip-rule="evenodd" d="M28.3971 28.8057C30.6948 26.824 32.4166 24.148 32.9894 21.621C33.1255 21.0218 33.1983 20.432 33.1983 19.858V14.1445V13.2884H31.0462C26.4824 13.2884 25.5329 7.65723 19.9564 7.65723H16.2534C11.984 7.65723 15.2343 14.1476 10.3224 14.1445H9.76855V19.858C9.76855 20.432 9.8413 21.0216 9.97745 21.621C10.5597 24.1829 12.3163 26.8938 14.6615 28.8818C15.8356 29.8775 17.1555 30.6923 18.5511 31.2123C19.6145 31.6119 20.5481 31.8084 21.4849 31.8084H21.5798C22.4819 31.7957 23.3869 31.5959 24.4187 31.2123C25.8494 30.6764 27.2007 29.8362 28.3971 28.8057Z" fill="#FFE5C1"/>
<path fill-rule="evenodd" clip-rule="evenodd" d="M32.9894 21.6211C34.4706 21.6401 36.1511 20.1118 36.1511 18.6122V17.4359C36.1511 16.7827 35.6194 16.25 34.9674 16.25H33.1983L31.7804 18.4409L32.9894 21.6211Z" fill="#FFBC85"/>
<path fill-rule="evenodd" clip-rule="evenodd" d="M10.3225 16.2498C15.2344 16.2498 11.984 9.7594 16.2535 9.7594H19.9565C25.533 9.7594 26.4825 15.3905 31.0462 15.3905H33.1984V13.6816V9.81651C33.1984 3.89677 26.6565 0.015852 21.156 0H21.0833C18.6114 0.00629737 16.3549 0.799006 15.013 2.54609C9.35421 3.04706 9.76886 10.5934 9.76886 11.5889V13.5103V16.2498H10.3225Z" fill="#838383"/>
<path fill-rule="evenodd" clip-rule="evenodd" d="M33.1983 9.81651C33.1983 3.89677 26.6564 0.015852 21.1559 0H21.0831C18.6146 0.00629737 16.3642 0.795857 15.0223 2.53654C16.168 1.97846 17.5226 1.71212 18.9468 1.70583H19.0228C24.5202 1.72483 31.0621 5.60574 31.0621 11.5255V15.3905H33.1984V13.6816V9.81651H33.1983Z" fill="#595959"/>
<path fill-rule="evenodd" clip-rule="evenodd" d="M31.0463 15.3907C26.4825 15.3907 25.533 9.75952 19.9565 9.75952H16.2536C14.5129 9.75952 14.0223 10.8376 13.7184 12.1121H19.5292C25.1025 12.1121 25.8431 17.3755 30.4069 17.404C31.0019 17.4071 31.062 17.4832 31.0652 18.0159C31.0683 19.411 31.0746 19.8327 30.6094 21.3229C29.9542 23.425 28.8781 25.6351 27.0742 27.1918C25.8779 28.2223 24.5264 29.0626 23.0959 29.5984C22.1274 29.9598 21.1969 30.1882 20.162 30.1945C18.2283 30.1945 14.0728 27.994 12.5726 26.7353C13.1929 27.5057 13.8955 28.235 14.6615 28.8818C15.8356 29.8774 17.1555 30.6923 18.5511 31.2123C19.6145 31.6118 20.5481 31.8083 21.4849 31.8083H21.5798C22.4819 31.7956 23.3869 31.5959 24.4187 31.2123C25.8492 30.6764 27.2007 29.8362 28.397 28.8057C30.6947 26.824 32.4165 24.1479 32.9893 21.6209C33.1254 21.0217 33.1982 20.4319 33.1982 19.858V16.2497V15.3905H31.0463V15.3907Z" fill="#FED1A3"/>
<path d="M21.4049 27.1673C21.404 27.1673 21.4031 27.1673 21.4022 27.1673C20.3581 27.1666 19.3785 26.7471 18.6442 25.986C18.3226 25.6526 18.3321 25.1216 18.6653 24.7998C18.9985 24.478 19.5293 24.4874 19.8509 24.8208C20.2665 25.2517 20.818 25.4891 21.4034 25.4896H21.4049C21.9914 25.4896 22.5442 25.2518 22.9619 24.82C23.2839 24.4871 23.8148 24.4784 24.1476 24.8005C24.4804 25.1227 24.489 25.6538 24.1669 25.9867C23.4304 26.7482 22.4496 27.1673 21.4049 27.1673Z" fill="#838383"/>
<path d="M17.8041 19.7173C17.5944 19.7173 17.3844 19.639 17.2216 19.4817C16.9121 19.1825 16.4105 19.1818 16.1034 19.4802C15.7714 19.803 15.2406 19.7951 14.9177 19.4628C14.595 19.1305 14.6028 18.5993 14.935 18.2765C15.8847 17.3537 17.4332 17.3531 18.387 18.275C18.7201 18.5969 18.7292 19.1281 18.4074 19.4612C18.2428 19.6317 18.0237 19.7173 17.8041 19.7173Z" fill="#838383"/>
<path d="M25.1818 19.7171C24.9624 19.7171 24.7433 19.6314 24.5787 19.4611C24.2568 19.128 24.266 18.5968 24.5991 18.2749C25.5527 17.3532 27.1012 17.3536 28.0509 18.2764C28.3831 18.5991 28.3909 19.1303 28.0684 19.4627C27.7457 19.7951 27.2148 19.8029 26.8826 19.4801C26.5755 19.1817 26.0738 19.1825 25.7643 19.4816C25.6017 19.6388 25.3916 19.7171 25.1818 19.7171Z" fill="#838383"/>
</svg>
