<svg width="7" height="13" viewBox="0 0 7 13" fill="none" xmlns="http://www.w3.org/2000/svg">
    <path d="M6.44946 5.57757L1.49696 0.633824C1.41562 0.551811 1.31884 0.486716 1.21221 0.442294C1.10559 0.397871 0.991219 0.375 0.875709 0.375C0.760198 0.375 0.645831 0.397871 0.539204 0.442294C0.432577 0.486716 0.335801 0.551811 0.254459 0.633824C0.0914891 0.797766 1.52588e-05 1.01954 1.52588e-05 1.2507C1.52588e-05 1.48186 0.0914891 1.70363 0.254459 1.86757L4.58571 6.24257L0.254459 10.5738C0.0914891 10.7378 1.52588e-05 10.9595 1.52588e-05 11.1907C1.52588e-05 11.4219 0.0914891 11.6436 0.254459 11.8076C0.335497 11.8903 0.432136 11.956 0.538777 12.0011C0.645418 12.0461 0.75994 12.0696 0.875709 12.0701C0.991478 12.0696 1.106 12.0461 1.21264 12.0011C1.31928 11.956 1.41592 11.8903 1.49696 11.8076L6.44946 6.86382C6.53828 6.78189 6.60916 6.68244 6.65764 6.57176C6.70612 6.46107 6.73115 6.34154 6.73115 6.2207C6.73115 6.09986 6.70612 5.98033 6.65764 5.86964C6.60916 5.75896 6.53828 5.65951 6.44946 5.57757Z"
          fill="#FFF"/>
</svg>
